<svg width="199" height="195" viewBox="0 0 199 195" fill="none" xmlns="http://www.w3.org/2000/svg">
<g clip-path="url(#clip0_70_2504)" filter="url(#filter0_d_70_2504)">
<path d="M60.6382 75.795L60.9811 75.5574L60.5327 76.508C60.3921 76.7896 60.0756 77.1241 59.5833 77.5114L58.8448 78.1715L58.8712 77.4322C58.9064 77.0801 59.4954 76.5344 60.6382 75.795ZM45.0777 67.7943C44.8667 66.9846 44.4535 65.99 43.8382 64.8106L42.9414 63.1999C42.7305 62.883 42.4403 62.7774 42.0711 62.883C41.7195 63.0062 41.5612 63.2615 41.5964 63.6488L41.8601 67.2926C42.0184 69.8627 42.0535 71.6055 41.9656 72.5208C41.9129 72.9609 41.7986 73.2954 41.6228 73.5242L40.8579 74.1051L39.7502 74.7652C39.2403 75.1173 38.8623 75.4958 38.6161 75.9007C37.9832 76.904 37.5612 78.4531 37.3502 80.5479C37.1392 82.4843 37.1832 83.9278 37.4821 84.8783C37.5876 85.2128 37.6052 85.5033 37.5348 85.7497C37.4821 85.9786 37.3238 86.2426 37.0601 86.5419L36.4535 86.8851L35.926 87.2812L35.715 88.2054C35.7326 88.4342 35.8557 88.6807 36.0843 88.9447L36.6645 89.7369C36.8755 90.1241 36.981 90.4762 36.981 90.7931L36.8227 91.8757C36.7524 92.4566 36.7788 92.9143 36.9018 93.2487C37.0601 93.7416 37.3854 93.9969 37.8777 94.0145C38.4403 93.9617 38.8271 93.9617 39.0381 94.0145C39.4601 94.1377 39.7854 94.2961 40.014 94.4898C40.348 94.8418 40.5678 95.3083 40.6733 95.8892C40.7964 96.4525 40.7788 96.9102 40.6206 97.2623L40.1195 97.4207L39.5129 97.5791L38.6953 97.764C38.3788 97.9224 38.1942 98.1865 38.1414 98.5561L38.537 99.1106L39.2755 100.008L40.2513 101.038C40.6733 101.513 40.77 101.848 40.5414 102.042C40.3832 102.165 40.0843 101.91 39.6447 101.276C39.0118 100.36 38.5107 99.7268 38.1414 99.3747C37.0513 98.3185 35.8997 97.5879 34.6865 97.1831C33.2271 96.6198 32.4974 96.3997 32.4974 96.5229L32.8931 97.051L33.315 97.5527C32.1546 96.9894 30.537 96.3205 28.4622 95.546L27.2227 95.3347C26.5897 95.2467 26.2644 95.2467 26.2469 95.3347C26.2117 95.4932 26.4491 95.7572 26.959 96.1269L27.9612 96.8134L34.7392 102.121C35.4425 102.684 36.137 103.503 36.8227 104.576C37.403 105.439 37.7898 106.17 37.9832 106.768C38.1063 107.173 38.326 107.481 38.6425 107.692L39.592 108.247L40.0931 108.616L40.0667 108.775C39.9436 109.303 39.9612 109.998 40.1195 110.861L40.6733 111.442L41.2799 111.943C37.148 118.721 34.4667 125.445 33.2359 132.117C31.3722 142.116 33.0513 150.97 38.2733 158.68C44.9019 168.45 52.8932 174.576 62.247 177.058C66.2383 178.114 70.8097 178.625 75.9614 178.59L90.9417 177.507C99.4516 176.539 107.364 173.326 114.678 167.869C116.999 166.126 119.135 164.243 121.087 162.219L123.54 159.472L123.091 157.281L80.2603 145.742L79.5219 148.858L78.3087 147.749C78.2208 147.449 78.2208 147.159 78.3087 146.877C78.3966 146.631 78.5109 146.446 78.6515 146.323L72.6383 149.306C68.6295 151.278 64.4976 151.613 60.2426 150.31C55.1085 148.743 50.7305 144.923 47.1085 138.85C44.7173 134.837 43.7327 130.154 44.1546 124.803C44.4711 120.736 45.5173 116.679 47.2931 112.63C48.5942 112.683 49.3327 112.806 49.5085 113C50.0184 113.581 50.5019 113.933 50.9591 114.056C51.9261 114.355 53.1481 114.003 54.625 113L54.7305 112.92C55.2052 112.604 55.4074 111.935 55.3371 110.914L55.4162 110.122L55.6536 109.541C55.7943 109.382 56.014 109.241 56.313 109.118L57.3943 108.669L58.4756 108.775L59.7679 109.329C60.7701 109.928 61.3855 110.254 61.6141 110.306C62.3877 110.5 63.0119 109.963 63.4866 108.696L64.0668 106.451L64.1987 106.055L64.8053 104.761C64.9987 104.268 64.946 103.784 64.6471 103.309C64.4712 103.01 64.2866 102.279 64.0932 101.117C63.8998 99.9556 63.8119 99.0578 63.8295 98.4241L63.8558 97.3415C63.8558 96.831 63.7503 96.3469 63.5394 95.8892C63.4163 95.6252 63.1789 95.2467 62.8273 94.7538L61.9569 93.3543L61.6932 92.3246L61.8251 91.4004C62.0009 90.7139 62.0712 90.1153 62.036 89.6048L61.9569 88.311C61.9218 87.8005 61.8251 87.3516 61.6668 86.9643C61.5965 86.7883 61.3591 86.357 60.9547 85.6705C60.6734 85.1776 60.5415 84.8255 60.5591 84.6143C60.5943 84.2622 60.902 83.2676 61.4822 81.6305C62.0624 80.0814 62.4053 78.9724 62.5108 78.3035C62.6163 77.617 62.669 76.8688 62.669 76.0591L62.6427 74.9765C62.6251 74.7828 62.5284 74.6156 62.3525 74.4748L64.6998 72.4152C64.8405 72.292 64.9196 72.1424 64.9372 71.9663C64.9723 71.7727 64.9284 71.5966 64.8053 71.4382C64.7174 71.2974 64.5767 71.2006 64.3833 71.1478L63.8822 71.227C62.247 72.0543 61.2009 72.5208 60.7437 72.6264L59.3459 72.6L58.713 72.4944C57.7811 72.3536 56.7701 72.8289 55.68 73.9203L55.469 74.1579L55.8118 71.3062C55.8646 70.5493 55.5921 69.361 54.9943 67.7415C54.5371 66.5797 53.9745 65.3299 53.3063 63.992C53.025 63.4287 52.7964 62.3197 52.6206 60.665L52.4096 57.2323C52.4096 56.8451 52.225 56.6162 51.8558 56.5458C51.4865 56.4578 51.214 56.581 51.0382 56.9155L50.6953 57.8133C50.4668 58.5174 50.3525 59.1863 50.3525 59.82C50.3525 60.2777 50.2294 61.1051 49.9832 62.3021L50.2206 60.1633C50.2382 59.9697 50.1942 59.7936 50.0887 59.6352C49.9657 59.4592 49.8074 59.3535 49.614 59.3183C49.4206 59.3007 49.236 59.3447 49.0602 59.4504C48.9019 59.556 48.8052 59.7056 48.77 59.8992L48.5327 60.9554C48.3217 61.73 48.0931 62.3813 47.847 62.9094C47.6184 63.4199 47.5129 64.0184 47.5305 64.705L47.7415 66.4741L47.9261 67.6623C47.9613 68.2256 47.4777 69.1674 46.4755 70.4876L45.8426 71.3326L45.5525 71.8343L45.4733 70.7253C45.3854 69.405 45.2535 68.4281 45.0777 67.7943Z" fill="#0D131A"/>
<path d="M46.3437 82.4755L45.869 82.2114C45.7459 82.2642 45.7459 82.5371 45.869 83.03C46.0448 83.7517 46.1239 84.6143 46.1063 85.6177C46.0888 86.5506 45.9921 87.3428 45.8162 87.9941C45.658 88.5398 45.403 89.0415 45.0514 89.4992C44.7525 89.9217 44.5942 90.3265 44.5767 90.7138C44.5591 91.6292 44.6294 92.4918 44.7876 93.3015C44.7876 93.4775 44.7261 93.6008 44.603 93.6712C44.4975 93.7416 44.3305 93.68 44.1019 93.4863C43.8734 93.2047 43.6712 92.8174 43.4953 92.3245C43.4074 92.0605 43.3986 91.7436 43.469 91.3739C43.5041 90.9163 43.4338 90.5114 43.258 90.1593L42.836 89.288C42.6777 88.9711 42.5195 88.8391 42.3613 88.8919L42.2821 89.3408L42.414 90.6874L42.0975 91.1627L41.9657 91.9549C42.0008 92.2365 42.247 92.9054 42.7041 93.9616L43.3107 95.7308C43.5041 96.3293 43.5832 96.7782 43.5481 97.0774C43.4602 97.9048 43.2931 98.3185 43.047 98.3185L42.836 97.9752L42.625 97.2623L41.781 95.6516C41.6052 95.3523 41.2711 94.9562 40.7788 94.4633C41.1656 95.1675 41.3591 95.898 41.3591 96.6549C41.3591 96.9894 41.2711 97.3767 41.0953 97.8168C40.9722 98.0984 40.6206 98.3009 40.0404 98.4241C39.4777 98.5121 39.1788 98.6793 39.1437 98.9258C39.1085 99.2074 39.3019 99.5243 39.7239 99.8763L40.7261 100.748C40.9898 101.082 41.1305 101.425 41.1481 101.778C41.1832 102.182 41.0426 102.49 40.7261 102.702C40.3744 102.948 39.8645 102.605 39.1964 101.672L37.6931 99.6387C37.1305 99.1634 35.9173 98.4769 34.0535 97.5791L35.7414 99.0314C35.9876 99.2426 36.225 99.5507 36.4535 99.9556L36.7173 100.51L35.6623 99.7971C34.8184 99.2514 34.0711 98.7937 33.4206 98.4241C32.3656 97.8608 30.6249 97.1302 28.1985 96.2325L35.1349 101.223C35.9612 101.874 36.7612 102.675 37.5349 103.626C38.2557 104.541 38.7129 105.289 38.9063 105.87C39.0645 106.31 39.4338 106.768 40.014 107.243L41.2272 108.168C41.3854 108.344 41.4294 108.599 41.3591 108.933L41.3327 110.253C41.403 110.553 41.5788 110.826 41.8602 111.072L45.7635 106.847L47.4514 105.342L48.3745 104.682L46.4492 107.296L47.9261 107.455L48.269 107.903L49.3503 105.923L49.2448 106.821C49.0866 107.631 48.814 108.599 48.4272 109.725L49.5613 109.831L50.247 110.042L50.6954 110.016C51.2053 109.576 51.4778 109.268 51.513 109.092C51.5305 108.986 51.4954 108.88 51.4075 108.775L51.2229 108.537C51.0119 108.132 50.9415 107.569 51.0118 106.847C51.0822 106.126 51.2668 105.58 51.5657 105.21C51.847 104.84 52.3657 104.427 53.1218 103.969C53.9305 103.494 54.5723 103.256 55.047 103.256C55.2229 103.256 55.5042 103.353 55.891 103.547L56.8141 103.969C57.1481 104.057 57.4295 103.908 57.658 103.52C58.0449 102.781 58.3438 101.945 58.5548 101.012C58.7657 100.026 58.7569 99.4187 58.5284 99.1898C58.2646 98.9258 57.491 98.5033 56.2075 97.9224L54.8624 97.1566C54.4756 96.8926 54.2382 96.6197 54.1503 96.3381C53.9393 95.7572 54.1679 95.053 54.836 94.2257C55.7152 93.1519 55.9086 92.1221 55.4163 91.1363C55.2053 90.6786 54.6954 90.3001 53.8866 90.0009C53.3943 89.8073 52.8844 89.4288 52.3569 88.8655L51.5393 87.3604L50.8536 85.2744C50.6778 84.6407 50.5107 84.3238 50.3525 84.3238C50.247 84.3238 50.1767 84.5703 50.1415 85.0632C50.1064 85.7145 50.1415 86.357 50.247 86.9907L50.458 88.2582C50.4932 88.5046 50.4756 88.663 50.4053 88.7334C50.2822 88.8567 50.1327 88.9007 49.9569 88.8655C49.4646 88.7422 49.0602 88.4694 48.7437 88.0469C48.3745 87.5188 48.102 86.7091 47.9261 85.6177C47.7855 84.7727 47.4778 83.9894 47.003 83.2676L46.3437 82.4755Z" fill="#EFE908"/>
<path d="M44.392 67.9792C44.181 67.2047 43.7678 66.2453 43.1525 65.1011L42.3085 63.596L42.5722 67.2399C42.7481 69.8452 42.7832 71.6319 42.6777 72.6001C42.5898 73.4626 42.203 74.1228 41.5173 74.5805C40.5854 75.1966 39.9612 75.7511 39.6447 76.244C39.0469 77.1945 38.5898 78.6468 38.2733 80.6008C37.9568 82.5019 37.9217 83.8574 38.1678 84.6672C38.3612 85.3009 38.2469 85.917 37.8249 86.5155L36.8491 87.8357C36.6909 88.1702 36.6645 88.4167 36.77 88.5751C36.981 88.8215 37.1656 89.1032 37.3239 89.42C37.4821 89.7545 37.5612 90.177 37.5612 90.6875C37.5612 91.3036 37.6491 91.8493 37.8249 92.3246C38.0008 92.8703 38.3964 93.24 39.0118 93.4336C39.803 93.6801 40.3217 93.9265 40.5678 94.1729L40.9898 94.7274C41.5524 95.326 42.036 96.0917 42.4404 97.0247L42.7568 98.0281L42.9942 98.5034C43.0997 98.5386 43.2052 98.4417 43.3107 98.2129L43.5744 97.2623C43.6272 96.8927 43.5832 96.4526 43.4426 95.9421L42.9415 94.437L42.3876 93.0639L42.0711 92.0077L42.0975 91.374L42.3085 91.0836C42.4492 90.8723 42.5195 90.6611 42.5195 90.4498L42.3876 89.4729C42.3349 89.1912 42.3437 89.0416 42.414 89.024C42.5722 88.9888 42.792 89.2968 43.0733 89.9481C43.3371 90.5115 43.4426 90.9691 43.3898 91.3212V92.2454C43.7766 93.3368 44.1722 93.8473 44.5766 93.7769C44.8755 93.7241 44.9459 93.3896 44.7876 92.7735L44.6558 90.9251C44.6558 90.4322 44.7788 90.0098 45.025 89.6577C45.4118 89.1472 45.658 88.7071 45.7635 88.3374C46.1503 86.982 46.3085 85.6881 46.2382 84.4559C46.2206 84.051 46.1151 83.5317 45.9217 82.898C45.6755 82.0707 45.9217 82.0971 46.6602 82.9772C47.2052 83.699 47.5745 84.4911 47.7679 85.3537C48.0843 86.8324 48.4448 87.8181 48.8492 88.311C48.9723 88.4519 49.1657 88.5927 49.4294 88.7335C49.7283 88.8919 49.9745 88.9624 50.1679 88.9448L50.4844 88.7335L50.5635 88.4431L50.1943 85.6705C50.1415 84.8784 50.1942 84.4823 50.3525 84.4823C50.4404 84.4823 50.5371 84.6496 50.6426 84.984L51.0118 86.1722C51.4338 87.5101 51.7855 88.3462 52.0668 88.6807L53.069 89.6049L54.0712 90.2122C54.3877 90.3354 54.6251 90.4586 54.7833 90.5819C54.9943 90.7579 55.1701 91.0219 55.3108 91.374C55.5745 91.9725 55.6009 92.5622 55.3899 93.1432L54.6514 94.3578L54.0448 95.3876C53.9217 95.7044 53.913 96.0389 54.0184 96.391C54.0888 96.5846 54.3349 96.8486 54.7569 97.1831L56.524 98.1865C57.3328 98.4858 57.9569 98.8466 58.3965 99.2691C58.836 99.7268 58.5635 101.126 57.5789 103.467C57.4031 103.82 57.1569 103.952 56.8404 103.864L55.9965 103.467C55.5569 103.256 55.1789 103.151 54.8624 103.151C54.5108 103.151 53.913 103.415 53.069 103.943C52.2778 104.418 51.7591 104.797 51.5129 105.078C51.2668 105.342 51.091 105.844 50.9855 106.583C50.88 107.27 50.88 107.789 50.9855 108.141L51.3547 108.801C51.4602 108.977 51.4426 109.127 51.302 109.25L50.7745 109.752C50.5987 109.91 50.414 109.972 50.2206 109.937L49.5085 109.699L48.48 109.593L47.8997 111.151L48.1635 111.099C48.5679 111.011 49.0778 111.292 49.6931 111.943L51.0646 113.185C51.6096 113.325 52.6646 112.876 54.2294 111.838C54.5108 111.644 54.6426 111.389 54.625 111.072C54.5899 110.562 54.625 110.166 54.7305 109.884C54.8888 109.426 55.2053 109.074 55.68 108.828C56.2954 108.599 56.7877 108.379 57.1569 108.168L59.1613 108.273L61.0602 109.039C61.4998 109.145 61.9657 108.845 62.4581 108.141C62.8273 107.595 63.135 106.962 63.3811 106.24L63.7767 104.841C63.8471 104.4 63.7504 103.969 63.4866 103.547C63.2405 103.142 63.0998 102.165 63.0646 100.616L63.1174 97.3415C63.1174 96.7606 62.9152 96.1797 62.5108 95.5988L61.2976 93.6712C60.9811 93.0199 60.8932 92.3422 61.0339 91.6381C61.2273 90.6347 61.3152 89.9746 61.2976 89.6577C61.2624 89.1824 60.9899 88.3022 60.48 87.0172C60.0053 85.8378 59.7943 85.0104 59.8471 84.5351C59.8822 84.0598 60.1899 83.03 60.7701 81.4457C61.3679 79.7734 61.7108 78.6908 61.7987 78.1979C61.9042 77.5466 61.9482 76.8249 61.9306 76.0327L61.9042 75.0293L61.7723 75.531C61.6317 75.9535 61.4295 76.3936 61.1657 76.8513C60.9547 77.2386 60.5943 77.6434 60.0844 78.0659C59.5218 78.5236 59.1174 78.9373 58.8712 79.3069C58.6251 79.6766 58.458 80.1255 58.3701 80.6536C58.124 79.1749 58.0448 78.0747 58.1327 77.353C58.1855 76.8777 58.5371 76.3848 59.1877 75.8743L60.8229 74.7917C61.1745 74.5452 61.8427 73.9819 62.8273 73.1018L64.2251 71.8607L62.9328 72.4945C62.0009 72.9521 61.3328 73.2338 60.9284 73.3394L59.7416 73.4186L58.6339 73.2074C57.913 73.1018 57.0954 73.5067 56.1811 74.422C56.0053 74.5981 55.8734 74.9589 55.7855 75.5046C55.68 76.0855 55.4514 76.6224 55.0998 77.1153C54.4492 77.9955 54.08 78.682 53.9921 79.1749C54.6426 74.9501 55.0119 72.3096 55.0998 71.2534C55.1525 70.5493 54.8624 69.4051 54.2294 67.8208C53.8075 66.7118 53.28 65.5411 52.647 64.3089C52.2954 63.6048 52.0316 62.2229 51.8558 60.1633L51.6976 57.2588L51.3811 58.0245C51.1701 58.6583 51.0646 59.2568 51.0646 59.8201C51.0646 60.2954 50.9591 61.0875 50.7481 62.1965L50.3525 64.6786C50.2646 65.6468 50.1855 66.0516 50.1151 65.8932C49.869 65.5764 49.6228 65.0483 49.3767 64.3089C49.1305 63.5872 49.1745 62.1701 49.5085 60.0577L49.2448 61.1403L48.5327 63.2263C48.2866 63.772 48.2162 64.4849 48.3217 65.3651L48.6382 67.6095C48.6909 68.2081 48.436 68.9386 47.8734 69.8012L46.4492 71.7551C45.9569 72.4769 45.6755 73.2866 45.6052 74.1844C45.2711 73.6211 45.025 72.9697 44.8667 72.2304L44.7085 70.3821C44.6733 69.4667 44.5678 68.6657 44.392 67.9792Z" fill="#E50020"/>
<path d="M114.019 166.575C116.34 164.885 118.476 163.09 120.428 161.189L122.669 158.812L102.151 153.294C100.217 156.938 97.755 160.203 94.766 163.09C90.0715 167.596 84.6912 170.448 78.6252 171.645C67.1087 173.898 56.1724 171.381 45.8163 164.093C43.6536 162.562 41.6317 160.661 39.7503 158.39C46.2383 167.702 54.0009 173.493 63.0384 175.764C66.8538 176.733 71.2318 177.181 76.1725 177.111L90.3879 176.028C98.7045 175.078 106.581 171.927 114.019 166.575Z" fill="#DDD583"/>
<path d="M99.9879 152.766L90.678 150.231C88.2868 154.579 84.6296 158.073 79.7065 160.713C74.6603 163.407 69.0954 164.753 63.0119 164.753C57.7196 164.753 52.7789 163.715 48.1898 161.638C43.7415 159.613 40.1546 156.858 37.4293 153.373C39.6975 157.492 42.6777 160.802 46.3701 163.301C56.5503 170.184 67.2493 172.525 78.4669 170.325C84.2516 169.181 89.2274 166.47 93.3945 162.192C95.7154 159.798 97.9132 156.656 99.9879 152.766Z" fill="#D18200"/>
<path d="M48.0052 107.243L48.3745 105.157L47.2931 106.108L46.3437 107.454L43.1525 111.758C40.392 115.702 38.1063 120.314 36.2953 125.595C34.5546 130.664 33.6843 135.056 33.6843 138.771C33.6843 143.946 34.9326 148.813 37.4293 153.373C40.1546 156.858 43.7415 159.613 48.1898 161.637C52.7789 163.715 57.7196 164.753 63.0119 164.753C69.0954 164.753 74.6603 163.407 79.7065 160.713C84.6296 158.073 88.2868 154.579 90.678 150.231L79.8384 147.3L79.2581 147.854C78.2735 148.523 76.3043 149.579 73.3504 151.023C69.0779 153.117 64.5943 153.461 59.8998 152.052C54.2382 150.363 49.4734 146.287 45.6052 139.827C43.1085 135.655 42.159 130.708 42.7568 124.987C43.1964 120.868 44.3832 116.582 46.3173 112.128C47.2843 109.91 48.1107 108.22 48.7964 107.058L49.0602 105.817L48.0052 107.243Z" fill="#F29600"/>
<path d="M95.0296 160.37C96.7176 158.346 98.3703 155.811 99.9879 152.766L79.8647 147.326L79.7856 147.458C79.6274 147.634 79.2493 147.898 78.6515 148.25C78.2999 149.799 78.1241 151.366 78.1241 152.95C78.1241 155.925 78.7131 158.76 79.8911 161.453C81.034 164.058 82.6428 166.347 84.7175 168.318C88.6384 166.54 92.0758 163.891 95.0296 160.37Z" fill="#D18200"/>
<path d="M117.527 163.856C118.581 162.06 119.373 160.133 119.9 158.073L102.151 153.294C100.726 156.022 98.933 158.583 96.7704 160.978C93.5528 164.604 89.8956 167.376 85.7989 169.295C87.6626 170.827 89.7022 172.006 91.9176 172.833C94.2385 173.696 96.6385 174.136 99.1176 174.154C105.693 172.059 111.83 168.626 117.527 163.856Z" fill="#DDD583"/>
<path d="M142.08 28.002L149.755 36.5044C150.072 36.9445 150.23 38.1855 150.23 40.2275C150.23 42.5159 150.001 44.9012 149.544 47.3832C149.263 49.0028 148.63 51.0887 147.645 53.6412C146.643 56.2817 145.782 58.0421 145.061 58.9222L141.157 63.3319L137.544 67.4246C136.999 68.2168 136.612 69.5282 136.384 71.359C135.891 74.5804 135.487 76.6576 135.171 77.5905C134.731 78.858 134.186 80.0814 133.535 81.2608C133.061 82.1058 132.349 83.2412 131.399 84.6671C130.116 86.5506 128.63 88.355 126.942 90.0801L125.781 89.6048L124.384 89.5256C123.909 89.684 123.575 90.1241 123.381 90.8458L123.039 92.6414L121.377 93.7504C121.043 93.9792 120.832 94.3137 120.744 94.7538C120.691 95.1586 120.788 95.5283 121.034 95.8628L124.885 100.853L127.311 107.006C127.505 107.516 127.874 107.815 128.419 107.903C128.665 107.956 129.025 107.868 129.5 107.639L130.45 107.006C132.313 104.752 134.23 102.71 136.199 100.88C139.153 98.1512 141.509 96.6197 143.267 96.2853C144.551 96.0388 145.87 96.1444 147.223 96.6021C147.628 96.7606 148.683 97.2622 150.388 98.1072C151.443 98.6353 152.208 98.961 152.683 99.0842C153.474 99.2954 154.177 99.2426 154.793 98.9258C155.303 98.6617 155.593 98.2128 155.663 97.5791L155.61 96.3645L155.478 95.7836C155.32 94.7626 155.566 93.6448 156.217 92.4301C156.639 91.6908 157.456 90.9426 158.67 90.1857C160.463 89.0415 162.476 88.4694 164.709 88.4694C169.861 88.4694 175.294 90.617 181.008 94.9122C184.261 97.3415 187.074 99.9908 189.448 102.86C189.536 103.599 189.536 104.506 189.448 105.58L189.29 107.296C189.29 108.176 189.5 108.951 189.922 109.62C190.362 110.306 190.89 110.65 191.505 110.65C192.085 110.65 192.604 110.43 193.061 109.989C193.641 109.444 193.975 108.652 194.063 107.613L194.09 107.455C194.459 103.265 194.696 99.9556 194.802 97.5263C194.872 95.8892 194.872 94.9034 194.802 94.5689C194.485 92.4037 193.782 88.9799 192.692 84.2974C191.672 79.8966 190.749 76.2527 189.922 73.3657C189.202 70.8309 188.041 67.3894 186.441 63.0414C184.947 58.975 183.971 56.537 183.514 55.7272C182.916 54.6534 180.525 51.6785 176.34 46.8023C172.208 41.9966 169.623 39.1713 168.586 38.3263C167.725 37.6222 166.353 36.8477 164.472 36.0027L162.784 35.237C162.063 34.9025 161.623 34.6737 161.465 34.5504L154.924 29.4807L148.173 24.3317C146.854 23.3811 145.597 22.809 144.401 22.6154C143.153 22.4217 142.221 22.677 141.606 23.3811C141.149 23.9092 140.938 24.5958 140.973 25.4407C141.026 26.3913 141.395 27.2451 142.08 28.002Z" fill="#0D131A"/>
<path d="M168.771 49.7861C164.92 46.5119 162.67 44.734 162.019 44.4523C161.14 44.3291 159.909 44.4699 158.327 44.8748C156.727 45.2973 155.777 45.7462 155.478 46.2214C155.285 46.5911 154.168 49.9886 152.129 56.4138L150.678 60.7442C150.309 61.7124 147.733 64.2824 142.951 68.4544C142.335 69.0001 141.544 70.9277 140.577 74.2371L139.944 76.3495L138.705 81.1288L137.017 88.0733C136.647 89.4992 136.313 90.3089 136.015 90.5026C134.836 91.3123 133.5 92.571 132.006 94.2785C131.724 94.6129 131.127 95.898 130.212 98.1336L127.733 104.392L128.656 106.478C130.098 104.876 131.768 103.221 133.667 101.513C137.465 98.116 140.507 96.2061 142.793 95.7836C144.973 95.3787 147.364 95.766 149.966 96.9454L152.393 98.0808C153.149 98.3801 153.711 98.4329 154.081 98.2392C154.274 98.1336 154.406 97.7727 154.476 97.1566L154.529 96.2853C154.406 96.0036 154.344 95.6163 154.344 95.1234C154.344 94.1553 154.634 93.1343 155.215 92.0605C155.707 91.1275 156.692 90.2561 158.168 89.4464C160.103 88.3726 162.309 87.8357 164.788 87.8357C169.782 87.8357 174.933 89.64 180.243 93.2487C183.531 95.4843 186.591 98.1776 189.421 101.329C189.228 94.2169 189.017 90.2297 188.788 89.3672C188.032 86.2866 186.415 81.2256 183.936 74.1843C180.63 64.8369 177.984 58.9046 175.997 56.3874C175.153 55.3312 172.744 53.1307 168.771 49.7861Z" fill="#008086"/>
<g filter="url(#filter1_d_70_2504)">
<path d="M143.452 27.3154C147.883 32.0331 150.529 34.9288 151.39 36.0026C151.953 36.7243 152.138 38.4319 151.944 41.1252C151.821 42.9207 151.54 45.0067 151.1 47.3832C150.819 48.9851 150.107 51.1503 148.964 53.8788C147.804 56.6249 146.801 58.5172 145.957 59.5558L138.731 68.0054C138.239 68.6568 137.808 70.1002 137.439 72.3358C136.982 75.082 136.63 76.8071 136.384 77.5112C135.927 78.8491 135.461 80.0373 134.986 81.0759L133.219 84.5085C132.568 85.7232 131.478 87.2547 129.948 89.103C128.524 90.8105 127.672 91.7171 127.39 91.8227L126.441 91.5323C125.984 91.3034 125.623 91.233 125.359 91.321C124.867 91.4795 124.542 92.21 124.384 93.5126L122.195 94.9649L126.151 100.14L126.705 101.513C128.832 96.7076 130.203 93.9615 130.819 93.275C132.7 91.1098 134.247 89.6223 135.461 88.8126C135.795 88.4253 136.647 85.5383 138.019 80.1517L139.285 75.2932L139.918 73.2072L140.894 70.1178C141.28 69.1849 141.729 68.4895 142.239 68.0318L146.3 64.0711C148.269 62.0467 149.342 60.7969 149.518 60.3216L150.968 56.044C153.289 49.0731 154.555 45.4292 154.766 45.1123C155.223 44.3554 156.41 43.7393 158.327 43.264C160.067 42.8415 161.465 42.7095 162.52 42.8679C163.171 42.9735 165.623 44.8923 169.878 48.6242C173.993 52.2153 176.428 54.4949 177.184 55.4631C179.347 58.2092 182.089 64.564 185.413 74.5275C187.083 79.5092 188.542 84.2709 189.791 88.8126C190.072 89.9744 190.309 94.5776 190.503 102.622L190.74 107.296C190.74 107.701 190.819 108.053 190.977 108.352C191.136 108.634 191.311 108.775 191.505 108.775C191.751 108.775 191.927 108.704 192.032 108.563C192.226 108.352 192.349 107.947 192.402 107.349L192.744 101.962L193.035 96.8133C193.017 94.9473 192.507 91.6115 191.505 86.8058C190.626 82.5106 189.773 78.9899 188.947 76.2438C187.716 72.1246 186.239 67.715 184.516 63.0149C183.074 59.1422 182.16 56.8537 181.773 56.1496C181.228 55.1638 178.986 52.3385 175.048 47.6736C171.092 42.9735 168.63 40.2362 167.663 39.4617C166.854 38.8103 165.254 37.9478 162.863 36.874C161.667 36.3283 160.551 35.853 159.513 35.4481L147.83 25.8103C146.863 25.0005 145.896 24.446 144.929 24.1468C143.927 23.8475 143.267 23.9179 142.951 24.358C142.318 25.2734 142.485 26.2592 143.452 27.3154Z" fill="#F29600"/>
</g>
<path d="M156.059 52.585C156.463 52.3914 157.061 52.2066 157.852 52.0305L159.804 51.7401C161.034 52.585 163.267 54.3894 166.503 57.1531C169.914 60.0576 171.953 61.9324 172.621 62.7774C174.467 65.1186 177.026 70.8749 180.296 80.0462C182.793 86.9819 184.437 91.9901 185.228 95.0706L185.386 97.2887C186.722 98.5033 188.068 99.8499 189.421 101.329C189.228 94.2169 189.017 90.2297 188.788 89.3672C188.032 86.2866 186.415 81.2256 183.936 74.1843C180.63 64.8369 177.984 58.9046 175.997 56.3874C175.153 55.3312 172.744 53.1307 168.771 49.7861C164.92 46.5119 162.67 44.734 162.019 44.4523C161.14 44.3291 159.909 44.4699 158.327 44.8748C156.727 45.2973 155.777 45.7462 155.478 46.2214C155.285 46.5911 154.168 49.9886 152.129 56.4138L150.678 60.7442C150.309 61.7124 147.733 64.2824 142.951 68.4544C142.335 69.0001 141.544 70.9277 140.577 74.2371L139.944 76.3495L138.705 81.1288L137.017 88.0733C136.647 89.4992 136.313 90.3089 136.015 90.5026C134.836 91.3123 133.5 92.571 132.006 94.2785C131.724 94.6129 131.127 95.898 130.212 98.1336L127.733 104.392L128.656 106.478L130.951 104.101C131.724 102.165 132.225 101.029 132.454 100.695C133.825 99.1106 134.977 98.0192 135.909 97.4207C136.524 96.9982 136.999 96.3381 137.333 95.4403C137.579 94.8066 137.975 93.3455 138.52 91.0571L139.601 86.5946L140.815 81.9738L141.474 79.7558C141.896 78.3123 142.309 76.5431 142.713 74.4484L143.188 71.755L150.546 65.4179C151.795 64.2736 152.604 63.1558 152.973 62.0644L156.059 52.585Z" fill="#00666C"/>
<path d="M7.62701 74.3165C7.02921 75.8479 6.28194 79.5534 5.38524 85.433C4.5237 91.066 4.09293 94.7891 4.09293 96.6023V97.1832L4.17205 108.722C4.40063 110.887 5.31493 111.952 6.91493 111.917C7.61823 111.9 8.11932 111.574 8.41822 110.94C8.69954 110.342 8.84021 109.356 8.84021 107.983C8.84021 107.12 8.92812 106.328 9.10395 105.606C12.638 102.121 16.3479 98.6442 20.2337 95.1764C25.5084 90.4939 29.0425 87.7654 30.8359 86.9908C32.9986 86.0579 35.6799 85.653 38.8799 85.7762C41.4997 85.8994 43.3635 86.2339 44.4712 86.7796C44.9811 87.0261 46.2294 88.3287 48.2162 90.6875L50.5108 93.196C51.0382 93.7065 51.5305 93.9882 51.9877 94.041L52.9899 93.909L54.5459 93.2488C57.2185 92.087 59.1702 91.3389 60.4009 91.0044C63.2669 90.2475 65.6933 90.2739 67.6801 91.0836C70.4933 92.2278 73.6318 93.9882 77.0955 96.3646C79.7329 98.1777 81.4999 99.5332 82.3966 100.431C82.6955 100.765 83.601 102.411 85.1131 105.369L89.6494 114.32C89.878 114.742 90.3879 114.971 91.1791 115.007C91.7417 115.007 92.1813 114.769 92.4978 114.294L104.445 94.173C104.726 93.7153 104.744 93.2488 104.498 92.7735C104.234 92.2806 103.839 92.0166 103.311 91.9814L98.2209 91.8494C97.4824 89.6842 96.8495 88.3991 96.322 87.9942C96.0231 87.783 95.4517 87.607 94.6077 87.4661L92.1549 87.5189L87.9351 84.72L81.5263 80.0727C78.0274 77.397 75.0384 74.5013 72.5592 71.3855C72.1197 70.3469 71.4076 68.0145 70.423 64.3882C69.3856 60.5507 68.4098 56.5899 67.4955 52.5059C66.6515 48.7212 65.9482 44.9277 65.3856 41.1254C64.8757 37.6576 64.6471 35.4395 64.6998 34.4714C64.735 33.9433 65.2537 32.8959 66.2559 31.3292C67.346 29.604 68.8142 27.5797 70.6603 25.256C71.3988 24.3406 71.8823 23.3725 72.1109 22.3515C72.3922 21.1192 72.2164 20.0454 71.5834 19.1301C71.1087 18.4435 70.5197 18.0387 69.8164 17.9154C69.0427 17.7922 68.19 17.9506 67.2581 18.3907C66.4669 18.7604 65.7372 19.2533 65.0691 19.8694L60.7702 24.015L56.6558 28.0021C56.5152 28.1254 55.8998 28.2926 54.8097 28.5038L52.647 28.9527C52.1371 29.1111 50.0888 30.1145 46.5019 31.9629L40.647 34.8674C38.9239 35.4131 37.1656 35.7916 35.3722 36.0028L33.2623 36.2933C32.4535 36.4341 31.9436 36.6102 31.7326 36.8214C30.5019 37.9832 28.0403 41.7591 24.348 48.1491L16.6468 61.7477C15.0644 64.4762 13.1128 67.3015 10.7919 70.2237L7.62701 74.3165Z" fill="#0D131A"/>
<path d="M13.8513 69.1937L11.3721 72.5472L9.34134 75.6365C8.76112 77.0976 7.98749 80.5567 7.02045 86.0137C6.05341 91.4179 5.56989 94.9474 5.56989 96.6021V102.385L5.64902 108.247C5.71935 108.863 5.83364 109.312 5.99189 109.593C6.20287 109.963 6.51057 110.139 6.91497 110.121C7.1787 110.104 7.3721 109.752 7.49518 109.065C7.58309 108.59 7.62704 108.062 7.62704 107.481L7.67979 105.131L9.47321 85.6704V85.5648C11.2139 79.122 14.8447 71.0509 20.3656 61.3515C25.3766 52.5674 29.3766 46.6879 32.3656 43.7129C33.192 42.868 36.8931 41.3453 43.469 39.1449C49.5525 37.0853 52.7877 36.0555 53.1745 36.0555C54.2647 35.9675 55.3724 36.2051 56.4976 36.7684C57.6229 37.3493 58.4845 38.1239 59.0823 39.0921C59.6801 40.0426 61.2801 45.4645 63.8823 55.3575C64.6559 58.3677 65.4911 62.8301 66.3878 68.7449C66.8977 72.0895 67.2318 73.9202 67.39 74.2371C67.6713 74.7652 69.8691 76.5079 73.9834 79.4653L76.99 81.6833C77.5879 82.1762 78.2208 82.9595 78.889 84.0333C79.2406 84.579 79.7417 85.468 80.3923 86.7002L80.9725 87.7828C81.0604 87.8885 81.5263 88.0381 82.3703 88.2317C84.0231 88.6366 85.3593 89.0151 86.3791 89.3671C87.7154 89.8248 89.4648 91.99 91.6275 95.8628C93.0693 98.4504 94.5813 101.584 96.1638 105.263L103.206 93.4335L97.1132 92.9582L96.5066 91.2419C96.0495 90.0625 95.6627 89.3583 95.3462 89.1295C94.9066 88.8302 94.1682 88.6894 93.1308 88.707L91.733 88.8126L86.7483 85.4328L80.656 81.2608C79.9351 80.7151 78.2208 79.1308 75.5131 76.5079C72.823 73.885 71.4076 72.4239 71.2669 72.1247C70.3702 70.1883 68.7087 63.9039 66.2823 53.2715C63.7856 42.2871 62.6339 35.8179 62.8273 33.8639C62.8977 33.1774 63.8823 31.505 65.7812 28.8469L69.368 24.1469C69.8779 23.5131 70.2296 22.7826 70.423 21.9552C70.6516 21.0751 70.6164 20.3709 70.3175 19.8428C70.0186 19.3323 69.4208 19.2531 68.5241 19.6052C67.7329 19.9045 66.9241 20.4326 66.0977 21.1895L61.8251 25.5463L57.8954 29.5335L55.6537 29.9031L52.5679 30.5633C51.8471 30.8097 48.102 32.5612 41.3327 35.8179L36.7437 37.1117C34.4052 37.7102 33.1393 38.0975 32.9459 38.2735C31.2755 39.8754 27.6887 45.3765 22.1854 54.7766L13.8513 69.1937Z" fill="#F29600"/>
<path d="M10.3699 85.8816L8.73475 104.101C12.3919 100.651 15.8996 97.4646 19.2579 94.5424C24.6909 89.8247 28.3832 87.0434 30.3349 86.1985C32.7085 85.1775 35.5745 84.7814 38.9327 85.0102C41.6053 85.1863 43.6097 85.6088 44.9459 86.2777C45.5261 86.5593 46.7569 87.7388 48.6383 89.8159C50.3789 91.7171 51.5833 92.7293 52.2515 92.8525C52.6559 92.9405 53.4471 92.7469 54.6251 92.2716L58.2911 90.7929C61.9834 89.4903 65.1922 89.3935 67.9175 90.5025C70.9417 91.7523 74.2384 93.451 77.8076 95.5986C80.8143 97.4118 82.6956 98.6792 83.4516 99.4009C83.9088 99.8586 85.3417 102.35 87.7506 106.874L91.2319 113.528L94.8451 107.719C92.278 101.329 90.8539 97.8166 90.5725 97.1829C88.8846 93.4158 87.522 91.3562 86.4846 91.0042C85.7461 90.7401 84.2868 90.3792 82.1066 89.9216L80.7879 89.5783L79.9967 88.9974L79.3109 87.7564L78.0978 84.9574C77.5175 83.7076 76.9901 82.8802 76.5153 82.4754L75.1703 81.6304L73.2714 80.4422L68.5505 76.9567C67.2669 75.9533 66.5197 75.2316 66.3087 74.7915L65.834 72.9168L65.201 68.9296L64.3043 62.6452C63.8999 59.9695 63.4691 57.7603 63.012 56.0176L60.19 45.2444C59.346 42.111 58.8273 40.3858 58.6339 40.069C58.1592 39.3296 57.3328 38.7399 56.1548 38.2998C55.0822 37.8774 54.0801 37.7101 53.1482 37.7982C52.2691 37.939 49.069 38.96 43.5481 40.8611C37.5173 42.9207 34.1679 44.285 33.4997 44.9539C30.4404 48.0345 26.414 53.7732 21.4205 62.1699C15.7414 71.7109 12.0578 79.6148 10.3699 85.8816Z" fill="#008086"/>
<path d="M13.0337 100.114L13.7458 92.2188C15.3985 86.1457 18.9941 78.4618 24.5326 69.1673C29.3854 61.0521 33.2536 55.5247 36.1371 52.5849C36.9986 51.9864 40.0228 50.7982 45.2097 49.0203C49.8514 47.436 52.9372 46.4502 54.4669 46.0629C54.9943 46.0453 55.5746 46.1597 56.2075 46.4062C56.8405 46.635 57.2713 46.8815 57.4998 47.1455C57.7636 47.8496 58.8537 51.8632 60.7702 59.1862L61.6141 62.4868C62.1768 64.6168 62.7482 67.8118 63.3284 72.0718L63.7504 75.1348L64.5153 79.65C64.6911 80.6006 64.8933 81.2871 65.1219 81.7096C65.4384 82.3609 66.1416 83.1443 67.2318 84.0597L72.823 88.2845L75.0648 89.6839L75.9351 90.212C82.2296 95.8803 85.7637 98.8464 86.5374 99.1105C87.522 99.9202 89.4824 104.083 92.4187 111.6V111.626L94.8451 107.719C92.278 101.329 90.8539 97.8166 90.5725 97.1829C88.8846 93.4158 87.522 91.3562 86.4846 91.0042C85.7461 90.7401 84.2868 90.3792 82.1066 89.9216L80.7879 89.5783L79.9967 88.9974L79.3109 87.7564L78.0978 84.9574C77.5175 83.7076 76.9901 82.8802 76.5153 82.4754L75.1703 81.6304L73.2714 80.4422L68.5505 76.9567C67.2669 75.9533 66.5197 75.2316 66.3087 74.7915L65.834 72.9168L65.201 68.9296L64.3043 62.6452C63.8999 59.9695 63.4691 57.7603 63.012 56.0176L60.19 45.2444C59.346 42.111 58.8273 40.3858 58.6339 40.069C58.1592 39.3296 57.3328 38.7399 56.1548 38.2998C55.0822 37.8774 54.0801 37.7101 53.1482 37.7982C52.2691 37.939 49.069 38.96 43.5481 40.8611C37.5173 42.9207 34.1679 44.285 33.4997 44.9539C30.4404 48.0345 26.414 53.7732 21.4205 62.1699C15.7414 71.7109 12.0578 79.6148 10.3699 85.8816L8.73475 104.101L13.0337 100.114Z" fill="#00666C"/>
<path d="M173.808 105.527L174.336 105.421L175.259 104.761C175.874 104.057 176.138 103.186 176.05 102.147C175.997 101.443 175.355 100.29 174.125 98.6882C173.105 97.3504 172.34 96.4702 171.83 96.0477L171.619 95.8629L172.674 92.9847L172.832 92.6679C173.078 92.1574 173.219 91.7085 173.254 91.3212C173.289 90.8283 173.193 90.2738 172.964 89.6577C172.542 88.6191 171.821 87.8886 170.802 87.4661C170.098 87.1845 169.096 87.0612 167.795 87.0964L165.764 87.3341C165.166 87.5805 164.191 88.6631 162.837 90.5819L162.388 90.7667L161.808 90.9252L159.856 90.001C158.96 89.3321 158.3 88.9184 157.878 88.76C157.316 88.5487 156.683 88.5399 155.979 88.7335C155.012 88.98 154.186 89.9042 153.5 91.5061C152.903 92.9319 152.692 94.0586 152.867 94.8859C152.938 95.2556 153.175 95.8629 153.579 96.7079L154.766 99.0315L155.056 99.5596L154.977 100.167C151.443 103.353 149.14 104.805 148.067 104.524L146.01 104.022C144.621 103.67 143.302 103.23 142.054 102.702C139.997 101.839 138.239 100.977 136.779 100.114C136.357 99.0051 136.006 98.2393 135.724 97.8169C135.004 96.7959 133.949 95.9861 132.56 95.3876C131.382 94.8771 129.465 94.5955 126.81 94.5426C125.245 94.5074 123.856 94.5338 122.643 94.6219L120.691 94.8067L127.443 109.329L128.445 109.145L133.008 107.666L136.015 109.171L140.234 111.204L142.028 112.155L143.557 113.079C145.228 113.959 146.546 114.443 147.514 114.531C149.729 114.69 152.41 113.827 155.558 111.944C157.509 110.764 159.514 109.285 161.571 107.507C162.221 107.877 162.81 108.071 163.338 108.088C164.076 108.124 164.885 107.886 165.764 107.375C166.274 107.094 166.837 106.548 167.452 105.738L168.639 103.969L169.272 105.263L169.72 105.738L173.808 105.527Z" fill="#0D131A"/>
<path d="M173.755 104.154C173.966 104.154 174.169 104.075 174.362 103.916C174.766 103.599 174.942 103.071 174.889 102.332C174.854 101.804 174.661 101.258 174.309 100.695L172.964 98.9785L171.276 97.3678L170.221 96.4172C170.028 96.1179 170.432 94.7977 171.434 92.4564C171.892 91.4002 172.12 90.6961 172.12 90.344C172.138 89.5167 171.566 88.8654 170.406 88.3901L167.98 88.2581L166.212 88.5485L165.105 89.8159L163.944 91.3738C163.593 91.8667 162.968 92.1484 162.072 92.2188L159.566 91.0042C158.968 90.5465 158.45 90.2736 158.01 90.1856L156.533 90.3176C155.988 90.4585 155.461 91.145 154.951 92.3772C154.476 93.5391 154.292 94.3752 154.397 94.8857C154.467 95.273 154.757 95.9771 155.267 96.9981L156.27 98.9785C156.516 99.4714 156.481 100.123 156.164 100.932L152.815 103.599C150.335 105.324 148.472 106.02 147.223 105.685L144.771 104.84L141.078 103.415L135.645 101.117C135.557 100.642 135.32 100.096 134.933 99.4802C134.142 98.2479 132.946 97.2886 131.346 96.602C130.274 96.1443 128.516 95.9067 126.072 95.8891L122.749 95.9947L128.234 107.824L132.111 105.791C135.733 107.675 138.617 109.056 140.762 109.937C141.535 110.271 142.863 110.922 144.744 111.891C145.975 112.542 146.88 112.885 147.461 112.92C149.465 113.079 151.988 112.234 155.03 110.385C156.894 109.241 158.793 107.833 160.727 106.161C160.797 106.108 160.709 105.861 160.463 105.421L160.067 104.761L161.465 105.738C161.711 106.02 162.063 106.231 162.52 106.372C163.417 106.671 164.401 106.521 165.474 105.923C166.388 105.395 167.153 104.638 167.769 103.652L168.401 102.332L170.274 104.339L173.755 104.154Z" fill="#F29600"/>
<path d="M156.586 95.361L158.722 96.6548C159.918 97.2357 160.744 97.535 161.201 97.5526C161.483 97.5526 161.72 97.4734 161.914 97.3149C162.248 96.9629 162.292 96.0651 162.045 94.6216C161.817 93.2838 161.544 92.3508 161.228 91.8227C160.806 91.1714 160.234 90.6961 159.514 90.3968L157.483 90.3176C156.867 90.5465 156.419 90.969 156.138 91.5851C155.892 92.1132 155.821 92.6853 155.927 93.3014L155.979 93.6711C156.085 94.4632 156.287 95.0265 156.586 95.361Z" fill="#0D131A"/>
<path d="M157.562 90.529L159.434 90.6346C160.103 90.9162 160.63 91.3563 161.017 91.9548C161.316 92.4301 161.58 93.3191 161.808 94.6217C162.037 96.0124 162.01 96.8486 161.729 97.1302C161.606 97.2534 161.439 97.315 161.228 97.315C160.806 97.2974 160.006 97.007 158.828 96.4437C157.685 95.8804 156.999 95.4667 156.771 95.2026C156.489 94.8858 156.305 94.3665 156.217 93.6447L156.164 93.2751C156.076 92.6942 156.138 92.1573 156.349 91.6644C156.595 91.1187 156.999 90.7402 157.562 90.529ZM161.439 91.6908C160.982 90.9867 160.366 90.485 159.593 90.1857L157.404 90.0801C156.823 90.3089 156.375 90.6874 156.059 91.2155C155.777 91.6908 155.637 92.2189 155.637 92.7998L155.742 93.724C155.848 94.5513 156.067 95.1498 156.401 95.5195C156.665 95.8364 157.404 96.2853 158.617 96.8662C159.865 97.4647 160.727 97.7727 161.201 97.7903C161.553 97.8079 161.843 97.7023 162.072 97.4735C162.476 97.0686 162.547 96.1004 162.283 94.5689C162.054 93.2135 161.773 92.2541 161.439 91.6908Z" fill="#0D131A"/>
<path d="M157.931 93.9881C158.248 94.3754 159.426 95.3083 161.465 96.787C161.623 96.6286 161.632 95.9509 161.492 94.7538C161.333 93.5392 161.122 92.6855 160.859 92.1926C160.56 91.6821 160.138 91.2948 159.593 91.0307C159.03 90.7491 158.511 90.6963 158.037 90.8723C157.527 91.0483 157.175 91.4004 156.982 91.9285C157.034 92.4214 157.149 92.8351 157.324 93.1695L157.931 93.9881Z" fill="white"/>
<path d="M157.298 94.7538C157.492 95.0002 158.186 95.4315 159.382 96.0476C160.63 96.6814 161.325 96.9278 161.465 96.787C159.426 95.3083 158.248 94.3753 157.931 93.9881L157.325 93.1695C157.149 92.835 157.034 92.4214 156.982 91.9285C156.859 92.2629 156.815 92.6238 156.85 93.0111L156.982 94.0145L157.298 94.7538Z" fill="#DBDCDC"/>
<path d="M174.151 102.042C173.799 101.742 173.298 101.531 172.648 101.408C171.962 101.285 171.364 101.425 170.854 101.83C170.503 102.112 170.256 102.464 170.116 102.887L168.744 105.052C168.551 105.263 168.199 105.457 167.689 105.633L166.872 105.87L167.241 106.636C167.628 107.428 168.753 107.771 170.617 107.666L172.753 107.375C173.492 107.147 174.081 106.706 174.52 106.055C174.819 105.615 175.004 105.113 175.074 104.55C175.144 104.004 175.083 103.529 174.889 103.124L174.81 102.992C174.634 102.587 174.415 102.27 174.151 102.042Z" fill="#0D131A"/>
<path d="M174.072 102.147C174.3 102.341 174.511 102.631 174.705 103.018L174.784 103.177C174.96 103.564 175.021 104.022 174.969 104.55C174.898 105.096 174.722 105.58 174.441 106.002C174.002 106.618 173.43 107.032 172.727 107.243L170.617 107.534C168.788 107.639 167.707 107.322 167.373 106.583L167.03 105.949L167.716 105.738C168.278 105.545 168.656 105.342 168.85 105.131C169.096 104.849 169.544 104.145 170.195 103.018L170.221 102.992L170.3 102.86C170.441 102.455 170.678 102.121 171.012 101.857C171.47 101.505 172.015 101.39 172.648 101.513C173.263 101.637 173.738 101.848 174.072 102.147ZM174.626 106.134C175.03 105.536 175.232 104.884 175.232 104.18C175.232 103.758 175.153 103.388 174.995 103.071L174.916 102.939C174.705 102.499 174.476 102.173 174.23 101.962C173.861 101.628 173.342 101.399 172.674 101.276C172.006 101.152 171.426 101.276 170.933 101.645C170.564 101.909 170.283 102.27 170.089 102.728L168.665 104.972C168.489 105.184 168.147 105.36 167.637 105.5L166.845 105.765L166.766 105.817L166.74 105.87L167.136 106.689C167.54 107.516 168.7 107.877 170.617 107.771L172.78 107.481C173.553 107.234 174.169 106.786 174.626 106.134Z" fill="#0D131A"/>
<path d="M174.204 103.441L173.782 102.781C173.518 102.535 173.122 102.367 172.595 102.279C172.05 102.174 171.619 102.315 171.303 102.702C171.127 102.878 171.013 103.071 170.96 103.283L170.38 104.26L169.483 105.58C169.202 105.897 168.744 106.152 168.111 106.346C171.276 106.803 173.307 105.835 174.204 103.441Z" fill="white"/>
<path d="M173.966 105.685C174.195 105.351 174.336 104.972 174.388 104.55C174.423 104.163 174.38 103.837 174.256 103.573L174.204 103.441C173.307 105.835 171.276 106.803 168.111 106.345C168.164 106.469 168.322 106.583 168.586 106.689L170.722 106.926L172.569 106.715C173.149 106.539 173.615 106.196 173.966 105.685Z" fill="#DBDCDC"/>
<path d="M168.085 90.265C167.54 90.8811 167.311 91.594 167.399 92.4038C167.452 93.1255 167.672 93.636 168.059 93.9353L169.193 94.9915L170.327 96.2589C170.538 96.5934 170.661 97.1479 170.696 97.9224L170.881 98.6089L171.645 98.5825C172.103 98.4417 172.542 98.1689 172.964 97.764C173.808 96.9366 174.23 95.8188 174.23 94.4106C174.23 93.0727 173.659 91.6292 172.516 90.0801C172.375 89.8865 172.085 89.7017 171.645 89.5256C171.241 89.3848 170.863 89.3056 170.511 89.288C169.527 89.2352 168.718 89.5609 168.085 90.265Z" fill="#0D131A"/>
<path d="M172.727 89.9481C172.551 89.7017 172.217 89.4904 171.725 89.3144L170.538 89.0503C169.448 88.9975 168.568 89.3496 167.9 90.1065C167.338 90.7579 167.083 91.5324 167.136 92.4302C167.223 93.2047 167.478 93.7768 167.9 94.1465L169.008 95.1499C169.606 95.7484 169.975 96.1621 170.116 96.3909C170.309 96.6726 170.423 97.2007 170.459 97.9752L170.643 98.6617L170.722 98.7938L171.645 98.8202H171.698C172.138 98.7322 172.612 98.4329 173.122 97.9224C174.019 97.0598 174.467 95.8892 174.467 94.4105C174.467 93.0551 173.887 91.5676 172.727 89.9481ZM169.351 94.833L168.217 93.7504C167.883 93.504 167.689 93.0463 167.637 92.3774L167.61 92.1661C167.61 91.5324 167.83 90.9515 168.27 90.4234C168.815 89.8073 169.562 89.508 170.511 89.5256L171.54 89.7633L172.331 90.2386C173.439 91.7524 173.993 93.1431 173.993 94.4105C173.993 95.7132 173.615 96.7518 172.859 97.5263C172.454 97.9488 172.032 98.2217 171.593 98.3449L171.065 98.3713L170.933 97.896C170.933 97.1391 170.801 96.5493 170.538 96.1269C170.379 95.8804 169.984 95.4491 169.351 94.833Z" fill="#0D131A"/>
<path d="M169.14 93.011L170.749 94.4633C171.452 95.3611 171.619 96.4261 171.25 97.6583V97.7903C171.584 97.6847 171.927 97.4647 172.278 97.1302C172.964 96.4437 173.307 95.5019 173.307 94.3049C173.307 93.6007 173.122 92.8262 172.753 91.9812C172.472 91.3475 172.155 90.8018 171.804 90.3441C171.575 90.0625 171.083 89.9216 170.327 89.9216C169.483 89.9392 168.859 90.1857 168.454 90.661L168.19 91.0042C168.366 91.8844 168.683 92.5533 169.14 93.011Z" fill="white"/>
<path d="M168.322 93.2752C169.588 94.2258 170.406 94.9739 170.775 95.5196C171.021 95.9245 171.18 96.6375 171.25 97.6585C171.619 96.4262 171.452 95.3612 170.749 94.4634L169.14 93.0112C168.683 92.5535 168.366 91.8846 168.191 91.0044C167.944 91.4445 167.865 91.9198 167.953 92.4303C168.023 92.8527 168.147 93.1344 168.322 93.2752Z" fill="#DBDCDC"/>
<path d="M168.401 99.2954C168.401 98.0983 167.953 97.0157 167.056 96.0476C166.142 95.0794 165.105 94.5777 163.944 94.5425C165.263 96.2676 165.79 97.7199 165.527 98.8993C165.351 99.6914 164.639 100.36 163.39 100.906C162.353 101.364 161.333 101.61 160.331 101.645L161.492 102.966C161.949 103.353 162.485 103.547 163.1 103.547C164.384 103.547 165.571 103.142 166.661 102.332C167.821 101.452 168.401 100.44 168.401 99.2954Z" fill="#D18200"/>
<path d="M164.525 95.3611C163.681 94.0232 163.188 93.4247 163.048 93.5655L164.129 95.4403C164.85 96.8309 165.122 97.9399 164.947 98.7673C164.788 99.401 164.155 99.9907 163.048 100.536C162.01 101.047 161.052 101.302 160.173 101.302C159.557 101.302 158.898 101.153 158.195 100.853L157.325 100.457C158.116 101.249 159.083 101.645 160.226 101.645C161.21 101.645 162.248 101.408 163.338 100.933C164.621 100.387 165.351 99.7091 165.527 98.8993C165.738 97.9664 165.404 96.7869 164.525 95.3611Z" fill="#0D131A"/>
<path d="M135.144 123.086L133.694 122.4L116.603 161.532L118.74 161.796C120.023 161.955 121.122 162.175 122.036 162.456C122.441 162.597 123.197 163.081 124.305 163.909L126.019 165.044C125.491 165.783 125.078 166.822 124.779 168.16C124.498 169.41 124.428 170.263 124.568 170.721C124.744 171.337 125.069 171.874 125.544 172.332C125.984 172.754 126.467 173.045 126.995 173.203C128.982 173.626 130.564 174.083 131.742 174.576C132.498 174.875 133.632 175.527 135.144 176.53L137.333 178.088L138.204 178.933C138.643 179.232 139.179 179.435 139.812 179.54C140.34 179.628 141.219 179.479 142.45 179.091L144.401 179.54L146.485 180.068C147.417 180.385 148.226 180.702 148.911 181.019L149.94 181.521C150.467 181.767 150.854 181.864 151.1 181.811C151.47 181.723 151.61 181.345 151.522 180.676C151.434 180.042 151.197 179.294 150.81 178.431L150.256 177.322L155.056 177.56C155.654 177.666 156.226 177.824 156.771 178.035L157.931 178.537L158.907 178.616C159.083 178.51 159.144 178.326 159.092 178.062C159.021 177.498 158.845 176.891 158.564 176.24C158.019 174.919 157.158 173.714 155.979 172.622L158.037 172.569C159.021 172.587 159.812 172.728 160.41 172.992C161.307 173.414 161.571 173.027 161.201 171.83C160.903 170.862 159.997 169.788 158.485 168.609C157.641 167.975 156.727 167.42 155.742 166.945C154.916 166.54 154.221 166.276 153.659 166.153L153.395 166.1L152.788 166.047L149.518 163.988C148.604 163.354 147.716 162.588 146.854 161.691L145.641 160.212L145.377 158.997L146.933 157.835C147.76 157.184 148.41 156.542 148.885 155.908C150.714 153.443 151.768 151.278 152.05 149.412C152.56 145.909 151.373 141.693 148.489 136.764C146.555 133.437 143.505 130.022 139.338 126.519C135.997 123.984 134.599 122.84 135.144 123.086Z" fill="#0D131A"/>
<path d="M138.784 127.39C137.746 126.528 136.727 125.797 135.724 125.199L134.511 124.539L118.951 160.212C120.305 160.37 121.491 160.608 122.511 160.925C123.056 161.101 123.751 161.55 124.595 162.271C125.544 163.081 126.274 163.609 126.784 163.856C127.083 164.014 127.549 164.304 128.182 164.727L129.026 165.308L128.287 165.413C127.777 165.484 127.434 165.572 127.258 165.678C127.047 165.818 126.828 166.276 126.599 167.051L126.124 169.242C126.476 169.805 127.267 170.342 128.498 170.853C129.377 171.205 130.309 171.495 131.294 171.724C132.208 171.935 133.193 172.244 134.248 172.648C135.496 173.106 136.454 173.564 137.122 174.021L139.1 175.263C139.733 175.615 140.296 175.817 140.788 175.87L142.107 177.85C143.654 177.34 145.421 176.574 147.408 175.553C149.536 174.444 151.162 173.414 152.287 172.464C153.571 171.39 154.309 170.378 154.503 169.427L154.397 168.318L148.437 164.595C147.399 163.873 146.45 163.028 145.588 162.06C144.92 161.303 144.498 160.713 144.322 160.291L144.217 159.552L143.188 159.868L140.393 160.08L141.843 159.763L142.977 159.34C143.259 159.252 143.619 159.076 144.059 158.812L144.665 158.416C145.263 158.029 146.124 157.078 147.25 155.564C148.656 153.716 149.509 151.648 149.808 149.359C150.318 145.715 149.412 141.772 147.092 137.53C144.859 133.463 142.089 130.084 138.784 127.39Z" fill="#F29600"/>
<path d="M128.498 170.853C127.267 170.342 126.476 169.805 126.124 169.242C126.036 169.982 126.019 170.43 126.072 170.589C126.283 171.135 126.687 171.575 127.285 171.909L128.762 172.464L131.927 173.441C132.296 173.511 133.219 173.995 134.696 174.893L137.412 176.583L138.494 177.507C138.951 177.894 139.496 178.141 140.129 178.246C140.48 178.299 141.14 178.167 142.107 177.85L140.788 175.87C140.296 175.817 139.733 175.615 139.1 175.263L137.122 174.021C136.454 173.564 135.496 173.106 134.247 172.648C133.192 172.244 132.208 171.936 131.294 171.724C130.309 171.495 129.377 171.205 128.498 170.853Z" fill="#D18200"/>
<path d="M142.713 160.898C143.065 160.669 143.215 160.52 143.162 160.449L142.634 160.608L141.527 160.977L140.076 161.109L139.258 161.215L140.05 161.426L141.5 161.373C141.905 161.303 142.309 161.145 142.713 160.898Z" fill="#0D131A"/>
<path d="M134.59 157.65C136.612 154.675 137.623 151.357 137.623 147.696C137.623 144.826 136.982 142.133 135.698 139.616C134.45 137.187 132.744 135.18 130.581 133.595L118.951 160.212C120.305 160.37 121.491 160.608 122.511 160.925C123.056 161.101 123.751 161.55 124.595 162.271C125.544 163.081 126.274 163.609 126.784 163.856L126.81 163.882C130.01 162.65 132.603 160.573 134.59 157.65Z" fill="#D18200"/>
<path d="M152.894 167.13C152.648 167.059 152.437 167.165 152.261 167.447C152.067 167.746 151.935 168.195 151.865 168.793C151.777 169.656 151.865 170.677 152.129 171.856H157.799C158.397 171.891 159.109 172.05 159.935 172.332L160.99 172.754C161.061 172.543 160.999 172.235 160.806 171.83C160.437 171.038 159.628 170.175 158.379 169.242C157.535 168.608 156.428 168.089 155.056 167.684L152.894 167.13Z" fill="white"/>
<path d="M155.426 170.747C153.474 170.606 152.419 170.334 152.261 169.929H152.234L152.419 171.487L157.826 171.513C158.388 171.531 159.021 171.654 159.724 171.883C158.617 171.267 157.184 170.888 155.426 170.747Z" fill="#DBDCDC"/>
<path d="M153.316 166.866L152.999 166.787L152.287 166.892C151.865 167.174 151.601 167.799 151.496 168.767V169.955L152.234 169.929V168.846C152.305 168.142 152.454 167.693 152.683 167.5C152.999 167.288 153.782 167.42 155.03 167.896C156.261 168.353 157.307 168.899 158.168 169.533C159.487 170.519 160.287 171.399 160.568 172.173L159.724 171.883L159.197 172.49L160.859 173.097H161.149C161.272 173.045 161.342 172.965 161.36 172.86C161.412 172.508 161.342 172.129 161.149 171.724C160.762 170.862 159.909 169.938 158.59 168.952C157.43 168.089 155.672 167.394 153.316 166.866Z" fill="#0D131A"/>
<path d="M157.799 172.226L159.197 172.49L159.724 171.883C159.021 171.654 158.388 171.531 157.826 171.513L152.419 171.487L152.234 169.929L151.496 169.955L151.76 171.935C151.812 172.129 151.935 172.226 152.129 172.226H157.799Z" fill="#0D131A"/>
<path d="M153.184 175.342C155.153 175.87 156.709 176.609 157.852 177.56L157.404 177.718L158.617 178.246C158.652 177.894 158.564 177.445 158.353 176.9C157.966 175.791 157.201 174.726 156.059 173.705C155.267 173.018 154.151 172.226 152.709 171.328L150.441 170.008C150.177 169.85 149.729 170.07 149.096 170.668C148.393 171.302 147.927 172.015 147.698 172.807L147.566 173.309L148.648 174.18C149.122 174.462 149.553 174.638 149.94 174.708L153.184 175.342Z" fill="white"/>
<path d="M154.793 176.847C155.302 176.935 156.173 177.225 157.404 177.718L157.852 177.56C156.709 176.609 155.153 175.87 153.184 175.342L149.94 174.708C149.553 174.638 149.122 174.462 148.647 174.18L147.566 173.309C147.338 174.347 147.294 175.333 147.434 176.266L154.793 176.847Z" fill="#DBDCDC"/>
<path d="M158.142 177.533L157.852 177.507C156.41 176.908 155.408 176.565 154.845 176.477L147.777 175.923C147.672 174.831 147.76 173.828 148.041 172.912C148.234 172.244 148.621 171.619 149.201 171.038C149.694 170.562 150.054 170.325 150.283 170.325L150.415 170.404C152.946 171.83 154.749 173.018 155.821 173.969C156.999 175.007 157.755 176.099 158.089 177.243L158.142 177.533ZM157.008 177.956C157.922 178.325 158.406 178.537 158.459 178.59L158.801 178.563L158.986 178.273C159.004 177.868 158.907 177.366 158.696 176.768C158.291 175.606 157.491 174.497 156.296 173.441C155.171 172.42 153.333 171.196 150.784 169.77L150.626 169.691C150.45 169.585 150.195 169.585 149.861 169.691C149.439 169.867 148.973 170.246 148.463 170.826C147.883 171.46 147.469 172.129 147.223 172.833C146.889 173.784 146.757 174.638 146.828 175.394L147.065 176.319C147.1 176.495 147.215 176.6 147.408 176.636L154.713 177.19C155.206 177.26 155.971 177.516 157.008 177.956Z" fill="#0D131A"/>
<path d="M145.298 173.494C145.087 173.317 144.516 173.458 143.584 173.916C142.599 174.391 141.913 174.911 141.527 175.474L141.421 175.659L141.87 175.421C141.87 176.055 142.186 176.521 142.819 176.821L145.957 178.141C147.874 179.003 149.166 179.76 149.834 180.412L149.597 180.623L150.547 181.045C150.687 180.816 150.731 180.491 150.678 180.068C150.608 179.223 150.133 178.352 149.254 177.454C147.197 175.289 145.878 173.969 145.298 173.494Z" fill="white"/>
<path d="M140.894 177.639L146.063 179.302C146.924 179.584 148.102 180.024 149.597 180.623L149.834 180.411C149.166 179.76 147.874 179.003 145.957 178.141L142.819 176.82C142.186 176.521 141.869 176.055 141.869 175.421L141.421 175.659C140.964 176.415 140.788 177.076 140.894 177.639Z" fill="#DBDCDC"/>
<path d="M141.843 175.685C142.16 175.21 142.74 174.752 143.584 174.312C144.322 173.925 144.832 173.749 145.113 173.784L149.017 177.718C149.826 178.546 150.265 179.338 150.335 180.095C150.371 180.394 150.221 180.482 149.887 180.359L146.195 178.959L143.188 178.035L141.368 177.349C141.193 176.926 141.351 176.372 141.843 175.685ZM145.535 173.203C145.395 173.097 145.166 173.053 144.85 173.071C144.322 173.141 143.689 173.388 142.951 173.81C142.16 174.268 141.588 174.752 141.236 175.263C140.762 175.967 140.498 176.618 140.445 177.216C140.393 177.621 140.445 177.921 140.604 178.114C140.656 178.202 140.85 178.273 141.184 178.326L142.977 178.748L145.957 179.646C146.96 179.98 147.997 180.367 149.07 180.808L150.388 181.362C150.582 181.45 150.74 181.406 150.863 181.23C151.021 180.931 151.083 180.544 151.048 180.068C150.995 179.135 150.485 178.176 149.518 177.19C147.302 174.902 145.975 173.573 145.535 173.203Z" fill="#0D131A"/>
<path d="M105.21 51.8985C104.841 51.9865 104.542 52.1801 104.313 52.4794C104.085 52.7787 103.979 53.1219 103.997 53.5092L104.313 62.038C104.471 68.0407 104.454 71.9663 104.26 73.8146C104.014 76.0326 103.311 78.9548 102.151 82.5811C100.902 86.4538 99.5571 89.6928 98.1154 92.2981C97.3769 93.6183 95.7857 96.1708 93.3417 99.9555L87.0384 109.989C84.7175 113.88 83.0999 116.978 82.1856 119.284C79.9878 124.864 78.4318 129.459 77.5175 133.067C75.8471 139.581 75.346 145.328 76.0142 150.31C76.7526 155.732 79.0032 159.974 82.7658 163.037C86.4582 166.065 91.3549 167.719 97.456 168.001C104.77 168.336 111.417 167.235 117.395 164.701C125.254 161.391 131.496 155.776 136.12 147.854C140.375 140.549 141.527 132.346 139.575 123.245C138.151 116.608 135.021 109.409 130.186 101.645C125.896 94.7273 123.294 85.204 122.379 73.0753C122.098 69.0969 122.546 63.9656 123.724 57.6812L125.597 49.3372C125.632 49.1084 125.491 48.8707 125.175 48.6243L124.357 48.0434C123.935 47.6385 123.434 47.5065 122.854 47.6473L105.21 51.8985Z" fill="#0D131A"/>
<path d="M132.955 149.887C126.766 155.063 120.199 158.311 113.254 159.631C106.291 160.951 100.252 160.062 95.1352 156.964C94.1154 159.886 92.8495 161.981 91.3374 163.248C90.6341 163.864 89.7198 164.428 88.5945 164.938C91.1792 166.012 94.133 166.628 97.4561 166.787C103.944 167.068 109.861 166.206 115.206 164.199C122.485 161.453 128.401 156.682 132.955 149.887Z" fill="#DDD583"/>
<path d="M137.149 120.076C135.566 115.57 133.553 111.97 131.109 109.277C127.716 105.545 123.724 103.846 119.135 104.18C113.632 104.603 108.744 108.845 104.471 116.908C100.656 124.107 98.5022 131.703 98.0099 139.695C97.5527 147.089 96.5945 152.845 95.1351 156.964C100.252 160.062 106.291 160.951 113.254 159.631C120.199 158.311 126.766 155.063 132.955 149.887L134.432 147.537C139.091 139.563 139.997 130.409 137.149 120.076Z" fill="#FFF697"/>
<path d="M96.7968 106.187C96.7968 104.127 96.155 102.244 94.8715 100.536C90.1945 107.789 87.0121 113.061 85.3242 116.353H85.4297C88.5769 116.353 91.2583 115.358 93.4737 113.369C95.6891 111.398 96.7968 109.004 96.7968 106.187Z" fill="#D18200"/>
<path d="M105.606 53.4829L105.632 54.7239L105.737 64.9162C105.737 68.4193 105.676 71.0862 105.553 72.9169L105.474 73.8147C105.21 76.3496 104.533 79.4566 103.443 83.1357C102.247 87.1844 100.937 90.4939 99.5132 93.0639L91.6011 105.659C87.5219 112.102 84.8845 116.837 83.6889 119.865C81.4735 125.498 79.8999 130.154 78.968 133.833C77.4208 139.977 76.9636 145.399 77.5966 150.099C78.0537 153.496 79.1439 156.418 80.8669 158.865C82.5021 161.206 84.6736 163.046 87.3813 164.384C88.7703 163.856 89.8868 163.231 90.7307 162.509C92.4187 161.066 93.7198 158.575 94.634 155.036C95.478 151.674 96.0934 146.86 96.4802 140.593C96.7088 136.755 97.3593 132.689 98.4319 128.394C99.5747 123.817 100.99 119.883 102.678 116.591C104.524 112.982 106.669 109.972 109.113 107.56C112.243 104.48 115.496 102.816 118.872 102.57C124.762 102.13 129.878 105.263 134.221 111.97C132.832 108.854 131.162 105.721 129.21 102.57C124.744 95.4228 122.063 85.8378 121.166 73.8147C121.008 71.4559 121.166 68.2609 121.641 64.2297C122.151 59.9873 122.828 56.5019 123.672 53.7733L123.223 49.3373V49.2317L105.606 53.4829Z" fill="#F29600"/>
<path d="M105.606 53.4829L105.632 54.7239L105.737 64.9162C105.737 68.4193 105.676 71.0862 105.553 72.917L105.474 73.8147L104.946 77.1946C108.146 78.0571 111.267 77.4234 114.309 75.2934C116.841 73.5155 119.188 70.7869 121.351 67.1079C121.79 61.8093 122.564 57.3644 123.672 53.7733L123.223 49.3373V49.2317L105.606 53.4829Z" fill="#D18200"/>
<path d="M76.3835 127.628C73.6582 130.744 71.3988 134.106 69.6054 137.715C67.2142 142.485 66.0186 147.546 66.0186 152.898C66.0186 155.661 66.6603 158.645 67.9439 161.849C68.5768 163.468 69.2186 164.833 69.8692 165.942C70.0098 166.787 70.0801 167.64 70.0801 168.503C67.7417 170.298 66.2032 171.672 65.4647 172.622L64.2515 174.101L63.3548 175.157C62.546 175.632 62.0186 176.143 61.7724 176.688C61.5438 177.234 61.4471 177.886 61.4823 178.642L59.8207 181.679C59.2054 183.052 58.9592 184.364 59.0823 185.613C59.1526 186.282 59.3109 186.828 59.557 187.25C59.8735 187.955 60.2076 188.324 60.5592 188.359L61.1394 187.937L61.4823 187.488C62.3614 186.573 62.9768 186.027 63.3285 185.851L65.0164 185.217L67.0472 184.504L68.9988 184.61V185.825C69.034 186.775 69.1658 187.567 69.3944 188.201C69.6582 188.958 69.9922 189.609 70.3966 190.155C70.801 190.718 71.1263 190.965 71.3725 190.894C71.4955 190.877 71.7681 190.533 72.19 189.865C72.5241 189.336 72.8933 188.879 73.2977 188.492L75.4604 187.066L77.5967 185.877L78.7307 185.481L80.3659 185.508C80.6472 186.634 81.2187 187.937 82.0802 189.416C82.5373 190.296 82.8714 190.727 83.0824 190.71C83.2055 190.692 83.4253 190.472 83.7418 190.049L84.1637 189.442C84.744 188.491 85.2099 187.831 85.5615 187.462L87.144 186.062L88.9901 184.452L90.2033 184.029L91.0473 183.395C91.3462 183.131 91.5572 182.814 91.6803 182.445C91.7682 182.181 91.8297 181.811 91.8649 181.336C92.0055 178.343 90.9682 175.034 88.7528 171.407L88.911 169.348C91.3726 168.133 93.711 166.162 95.9264 163.433C97.7902 161.145 98.9682 158.205 99.4605 154.614L99.6715 149.887C99.566 147.018 98.5286 144.166 96.5594 141.332C95.399 139.642 94.0979 138.19 92.6561 136.975L81.5 123.166L81.922 120.552L80.656 123.113L76.3835 127.628Z" fill="#0D131A"/>
<path d="M73.0867 81.6834L72.9812 81.1025C72.8581 79.9407 72.401 79.0165 71.6098 78.33L71.4515 78.1979C70.9592 77.7051 70.3262 77.3354 69.5526 77.0889C68.4801 76.7369 67.5306 76.8073 66.7042 77.3002C65.6669 77.8987 64.8493 78.9109 64.2515 80.3368C63.6009 81.9034 63.6009 83.1797 64.2515 84.1655L64.9899 85.5649C65.2888 86.181 65.4559 86.5947 65.491 86.806C65.4383 87.0172 65.2097 87.3781 64.8053 87.8886L63.8559 88.9976L61.4559 88.5487C60.4712 88.4783 59.7591 88.7775 59.3196 89.4465C59.091 89.7985 58.8976 90.9163 58.7394 92.7999C58.5811 94.701 58.6075 95.8629 58.8185 96.2854C58.9591 96.567 59.1965 96.8311 59.5306 97.0775L60.7701 97.8961L61.8515 98.3185C62.3262 98.477 62.6075 98.6178 62.6954 98.741C63.2756 99.3747 64.1284 100.633 65.2537 102.517C65.535 102.992 66.0273 103.362 66.7306 103.626L68.3658 103.996C69.702 109.382 70.8977 113.22 71.9526 115.508C72.779 117.321 73.746 118.589 74.8537 119.31C75.8383 119.944 77.0515 120.279 78.4933 120.314C79.7768 120.349 80.7878 120.164 81.5263 119.759C81.7549 119.636 82.8186 118.571 84.7175 116.564L88.067 113.105L89.8868 111.785L91.7857 110.544C92.5066 110.051 93.3681 109.576 94.3703 109.118L95.6626 108.59L96.6648 108.511L97.7989 108.722L98.4055 108.907L97.2451 108.088C98.3 107.948 98.8363 107.789 98.8539 107.613C98.8714 107.507 98.7396 107.437 98.4582 107.402H98.0099L105.869 95.2556C106.467 95.5372 106.81 95.5372 106.898 95.2556C106.951 95.0795 106.942 94.9299 106.871 94.8067L106.529 94.437C106.335 94.2786 105.553 93.8209 104.181 93.0639C102.933 92.395 101.5 91.8933 99.8824 91.5589C98.1242 91.2068 96.7791 91.198 95.8472 91.5325C94.1593 92.1486 92.9725 93.0199 92.2868 94.1465C91.6362 95.2556 91.3022 96.9103 91.2846 99.1107L89.9395 99.85C89.3593 100.184 88.9109 100.519 88.5945 100.853L88.1461 101.355L85.8516 103.943C84.7615 105.157 83.9439 105.958 83.3988 106.346C82.6604 106.874 81.7812 107.155 80.7614 107.191L78.7043 107.032L78.2559 104.048C78.0977 102.411 78.0801 101.311 78.2032 100.748L79.7329 99.4539C80.5241 99.1723 81.0516 98.917 81.3153 98.6882C81.8428 98.1601 82.0801 97.3063 82.0274 96.1269L82.001 94.8595L82.4494 94.4634C83.6801 93.4424 84.5065 92.6151 84.9285 91.9813C85.5791 91.0308 85.7637 89.9306 85.4824 88.6807C85.2186 87.5365 84.7615 86.8236 84.1109 86.5419C83.601 86.3307 83.3549 86.2427 83.3724 86.2779L80.7878 84.984C80.3483 84.8256 79.9263 84.8608 79.5219 85.0896L78.7043 85.829C78.212 86.3219 77.9219 86.5771 77.834 86.5947L76.0142 86.8324L74.3526 84.1391C73.6142 82.854 73.1922 82.0355 73.0867 81.6834Z" fill="#0D131A"/>
<path d="M71.6362 81.9738L71.4252 80.4952C71.3197 79.8967 71.1527 79.5006 70.9241 79.3069L69.5526 78.2771C68.7263 77.9603 67.7504 78.1099 66.6252 78.726L65.6757 80.4952C65.1306 81.7978 65.0603 82.7572 65.4647 83.3733C65.7285 83.7606 66.0098 84.4031 66.3087 85.3009C66.6252 86.2162 66.757 86.8148 66.7043 87.0964C66.5988 87.7477 66.1328 88.4519 65.3065 89.2088L64.0933 90.133L62.6427 89.7105C61.6054 89.5345 60.9021 89.7193 60.5328 90.265C60.146 90.8283 59.935 91.8229 59.8998 93.2488C59.8647 94.4986 59.935 95.2907 60.1108 95.6252L61.6141 96.7078C62.6163 97.3063 63.2581 97.7552 63.5394 98.0545L65.2274 100.061C65.9658 100.977 66.3966 101.558 66.5197 101.804C66.801 102.279 67.3988 102.64 68.3131 102.887L69.6054 103.098L70.001 105.58C70.4054 107.639 70.9768 109.629 71.7153 111.547C72.5768 113.765 73.2626 115.262 73.7724 116.036C74.212 116.688 74.8626 117.295 75.7241 117.858C76.4802 118.351 77.4296 118.642 78.5725 118.73C79.6274 118.818 80.4011 118.721 80.8934 118.439C81.1747 118.298 81.7989 117.638 82.7659 116.459C83.7857 115.209 84.5681 114.382 85.1132 113.977L87.8033 111.785C89.0868 110.711 90.133 109.901 90.9418 109.356C92.0143 108.616 94.0187 108.009 96.955 107.534L98.1946 107.375H98.6693L106.133 95.414L102.467 93.7769C99.7946 92.7735 97.9044 92.4654 96.7967 92.8527C95.4956 93.328 94.5462 93.8473 93.9484 94.4106C93.4033 94.9035 92.9989 95.5812 92.7352 96.4438C92.4187 97.5176 92.3132 98.6794 92.4187 99.9292L91.311 100.563C90.4846 101.073 89.8517 101.566 89.4121 102.042L87.0912 104.55C85.9308 105.73 84.9989 106.574 84.2956 107.085C82.7659 108.176 81.034 108.643 79.1 108.484C79.2406 108.977 79.6186 109.417 80.234 109.805L81.5527 110.729L82.634 111.363C82.9154 111.591 83.0648 111.917 83.0824 112.34C83.1 112.815 82.9066 113.545 82.5022 114.531C82.0978 115.499 81.8252 115.957 81.6846 115.904L81.9747 114.98C82.2912 114.17 82.423 113.343 82.3703 112.498C82.3703 112.322 82.256 112.146 82.0274 111.97C81.8868 111.882 81.5439 111.679 80.9989 111.363L79.8384 110.702C79.1879 110.28 78.5989 109.646 78.0714 108.801L77.8604 108.326L77.4911 106.953L76.8318 103.916C76.6736 102.966 76.6472 102.05 76.7527 101.17L76.99 100.14C78.1329 99.0315 78.889 98.3977 79.2582 98.2393L80.1285 97.7904C80.4274 97.4736 80.5769 96.9191 80.5769 96.1269L80.5505 94.7538L80.656 94.1729L82.1329 93.0639C83.1351 92.3774 83.7945 91.8141 84.111 91.374C84.8846 90.3002 85.0516 89.332 84.6121 88.4695L83.7417 87.4925L80.3131 86.3571L79.5747 87.0172C79.0824 87.5453 78.6604 87.871 78.3087 87.9942L76.5417 88.2846L75.223 88.1526C74.9944 88.0294 74.3615 87.0788 73.3241 85.3009C72.2691 83.5229 71.7065 82.4139 71.6362 81.9738Z" fill="#F29600"/>
<path d="M77.0164 91.1363C77.0867 91.8405 77.4647 92.2982 78.1505 92.5094C78.7834 92.703 79.2933 92.6326 79.6801 92.2982C80.4186 91.6644 81.0604 91.2332 81.6054 91.0043L82.4494 90.8723L83.0824 90.7931C83.6977 90.6875 84.1285 90.1858 84.3747 89.288C84.5329 88.6719 84.5505 88.0558 84.4274 87.4397C84.2516 86.7003 83.8824 86.0754 83.3197 85.5649C82.6516 84.9664 81.8428 84.7111 80.8933 84.7992C80.0318 84.8872 79.4516 85.1424 79.1527 85.5649L78.9944 85.7233C77.8867 86.8323 77.2625 87.8181 77.1219 88.6807C76.9636 89.6665 76.9285 90.485 77.0164 91.1363Z" fill="#0D131A"/>
<path d="M77.2274 90.3705L77.3592 88.7334C77.4999 87.9588 78.0977 87.017 79.1526 85.908L79.3373 85.7232C79.6186 85.3711 80.1461 85.1511 80.9197 85.0631C81.7637 84.9574 82.5109 85.1863 83.1615 85.7496C83.8999 86.4185 84.2692 87.2547 84.2692 88.2581L84.1373 89.2086C83.9087 90.0184 83.5483 90.4673 83.056 90.5553L82.423 90.6345L81.4999 90.7665C80.9549 91.013 80.3746 91.4003 79.7593 91.9284C79.39 92.21 78.9153 92.3068 78.3351 92.2188C77.7021 92.1132 77.3504 91.7875 77.2801 91.2418L77.2274 90.3705ZM76.8845 88.6541C76.7087 89.7103 76.7702 90.6697 77.0691 91.5323C77.4032 92.4124 77.7197 92.9317 78.0186 93.0902C78.3175 93.2486 78.7219 93.099 79.2318 92.6413C79.7417 92.1836 80.568 91.7083 81.7109 91.2154L83.1351 91.0306C83.8384 90.925 84.3307 90.3617 84.612 89.3407C84.7878 88.6894 84.8054 88.038 84.6648 87.3867C84.4889 86.6122 84.0933 85.952 83.478 85.4063C82.7747 84.755 81.9043 84.4734 80.8669 84.5614L79.7065 84.8782L78.968 85.4063L78.8098 85.5648C77.6845 86.6914 77.0428 87.7212 76.8845 88.6541Z" fill="#0D131A"/>
<path d="M80.867 85.4857C80.3043 85.5737 79.9351 85.7234 79.7593 85.9346L78.8626 86.938C78.3351 87.5893 78.0274 88.1614 77.9395 88.6543C77.7461 89.8513 77.7549 90.8195 77.9659 91.5589L78.3615 92.3246L78.5461 92.1398C78.8274 91.3476 79.5483 90.5291 80.7087 89.6841L81.4472 89.4993C81.8868 89.4289 82.256 89.2968 82.5549 89.1032L83.689 87.915C83.6186 87.1404 83.3109 86.5243 82.7659 86.0666C82.2384 85.5913 81.6054 85.3977 80.867 85.4857Z" fill="white"/>
<path d="M82.8977 89.8952C83.1087 89.86 83.3022 89.6487 83.478 89.2615C83.6538 88.839 83.7241 88.3901 83.689 87.9148L82.5549 89.103C82.256 89.2967 81.8868 89.4287 81.4472 89.4991L80.7087 89.6839C79.5483 90.5289 78.8274 91.3474 78.5461 92.1396C79.5834 91.1538 80.5065 90.4849 81.3153 90.1328L82.0802 89.9744L82.8977 89.8952Z" fill="#DBDCDC"/>
<path d="M67.4427 77.3265C66.546 77.7313 65.9658 78.4179 65.7021 79.386C65.5262 80.0022 65.4999 80.6711 65.6229 81.3928C65.7109 82.0265 65.8603 82.4754 66.0713 82.7395C68.4801 85.0631 70.0625 86.3129 70.8186 86.489C71.1702 86.5418 71.4252 86.4714 71.5834 86.2777C71.9702 85.8024 72.2428 84.7991 72.401 83.2676C72.5768 81.6481 72.4801 80.4598 72.1109 79.7029C71.0384 77.2208 69.4823 76.4287 67.4427 77.3265Z" fill="#0D131A"/>
<path d="M67.6273 77.7226C68.6647 77.2649 69.5438 77.309 70.2647 77.8547C70.7922 78.2419 71.2757 78.9197 71.7153 79.8878C72.0493 80.6096 72.1636 81.7626 72.0581 83.3469C71.9702 84.8608 71.7768 85.8026 71.4779 86.1722L71.0823 86.225C70.6779 86.137 69.8251 85.5385 68.524 84.4295L66.4141 82.4755L66.124 81.7362L65.9921 80.5216L66.124 79.4918C66.335 78.6644 66.8361 78.0747 67.6273 77.7226ZM72.3482 79.5182C71.9087 78.2155 71.2317 77.3354 70.3174 76.8777C69.4207 76.42 68.4097 76.4376 67.2845 76.9305C66.1943 77.4058 65.5174 78.3123 65.2537 79.6502C65.0075 80.9176 65.2273 81.9826 65.913 82.8452C66.5812 83.7958 67.5394 84.7463 68.7878 85.6969C70.1065 86.7179 71.012 87.1316 71.5043 86.938C72.0493 86.7267 72.4361 85.7937 72.6647 84.139C72.9109 82.3963 72.8054 80.856 72.3482 79.5182Z" fill="#0D131A"/>
<path d="M71.4516 79.7558C71.0296 78.8228 70.5636 78.1803 70.0537 77.8282L67.7592 77.749C67.2669 77.9427 66.8801 78.2947 66.5988 78.8052C66.6691 79.8086 66.9328 80.6712 67.39 81.3929C68.5504 83.1356 69.834 84.7023 71.2406 86.093C71.5219 86.1282 71.7153 85.2744 71.8208 83.5317C71.9263 81.7538 71.8032 80.4951 71.4516 79.7558Z" fill="white"/>
<path d="M68.7614 84.1654C70.0449 85.3624 70.8625 86.0049 71.2142 86.0929H71.2405C69.8339 84.7023 68.5504 83.1356 67.39 81.3929C66.9328 80.6711 66.6691 79.8086 66.5988 78.8052C66.3174 79.3509 66.2207 80.0198 66.3087 80.812C66.379 81.4105 66.4933 81.833 66.6515 82.0794L68.7614 84.1654Z" fill="#DBDCDC"/>
<path d="M66.8361 93.0374L65.5701 90.6345C65.0954 90.0888 64.4976 89.8072 63.7767 89.7896C63.0558 89.7896 62.4053 90.0888 61.8251 90.6873C61.1921 91.321 60.9547 92.1396 61.113 93.143C61.2712 93.9351 61.8163 94.5601 62.7481 95.0177L64.7789 95.7307C65.9921 96.1003 66.8185 96.2588 67.2581 96.206L67.8119 96.1531C67.9526 95.7483 67.6273 94.7097 66.8361 93.0374Z" fill="#0D131A"/>
<path d="M66.7834 93.5392C67.4691 95.053 67.7856 95.8804 67.7328 96.0212L66.9152 95.9684L65.0691 95.6516C64.4537 95.4931 63.7064 95.1939 62.8273 94.7538C61.9657 94.3137 61.4734 93.7592 61.3504 93.0903L61.324 92.5622C61.324 91.8756 61.5438 91.3123 61.9833 90.8723C62.546 90.2913 63.135 90.0185 63.7504 90.0537C64.4185 90.0537 64.9548 90.2913 65.3592 90.7666L66.7834 93.5392ZM68.2339 96.4965C68.4273 96.3205 68.2163 95.4491 67.6009 93.8824C66.968 92.2629 66.3526 91.1187 65.7548 90.4498C65.2097 89.8689 64.5504 89.5696 63.7767 89.552C62.9855 89.552 62.2734 89.8777 61.6405 90.529C60.9372 91.2331 60.6822 92.1133 60.8756 93.1695C60.9635 93.68 61.1745 94.1553 61.5086 94.5954L62.5372 95.4667C62.9943 95.7132 63.9965 95.986 65.5438 96.2853L68.2339 96.4965Z" fill="#0D131A"/>
<path d="M61.6933 91.8755C62.168 92.5973 62.8449 93.2926 63.724 93.9615C64.8141 94.7537 66.0713 95.3874 67.4955 95.8627C67.6537 95.8451 67.3109 95.0353 66.4669 93.4334C65.6581 91.9019 65.1394 91.0042 64.9108 90.7401C64.6119 90.4233 64.2603 90.2384 63.8559 90.1856C63.2757 90.0976 62.7306 90.3176 62.2207 90.8457C61.9218 91.145 61.746 91.4883 61.6933 91.8755Z" fill="white"/>
<path d="M62.7218 94.4634L65.0427 95.282C66.3613 95.7045 67.1789 95.8981 67.4954 95.8629C66.0712 95.3876 64.8141 94.7539 63.724 93.9617C62.8448 93.2928 62.1679 92.5975 61.6932 91.8757C61.6229 92.4038 61.7284 92.9583 62.0097 93.5393C62.2382 94.0145 62.4756 94.3226 62.7218 94.4634Z" fill="#DBDCDC"/>
<path d="M71.557 93.6183C72.0493 94.0231 72.5241 94.5072 72.9812 95.0705C73.9131 96.2148 74.3175 97.2005 74.1944 98.0279C74.1241 98.5912 73.9307 99.1457 73.6142 99.6914C74.546 99.4626 75.3197 98.9257 75.9351 98.0807C76.5505 97.2181 76.8582 96.2412 76.8582 95.1498C76.8582 93.8647 76.4538 92.7645 75.645 91.8491C74.8537 90.9338 73.8867 90.4761 72.7438 90.4761C72.0405 90.4761 71.3812 90.6697 70.7658 91.057C70.168 91.4267 69.6757 91.9283 69.2889 92.5621C70.3614 92.9141 71.1175 93.2662 71.557 93.6183Z" fill="#D18200"/>
<path d="M71.557 93.6184C71.2581 93.3896 70.7394 93.1255 70.001 92.8263C69.2801 92.527 68.9021 92.4126 68.8669 92.483L69.79 93.0111L71.1878 93.8033C71.6625 94.1729 72.1812 94.7978 72.7438 95.678C73.3944 96.7342 73.6757 97.588 73.5878 98.2393C73.4296 99.3835 72.7702 100.466 71.6098 101.487L69.9746 102.728C70.0625 102.957 70.7131 102.579 71.9263 101.593C73.2449 100.519 74.001 99.3307 74.1944 98.0281C74.3175 97.2007 73.9131 96.2149 72.9812 95.0707C72.5241 94.5074 72.0493 94.0233 71.557 93.6184Z" fill="#0D131A"/>
<path d="M83.267 120.921L82.8187 122.004C82.4494 122.831 82.0714 123.5 81.6846 124.011L78.2824 127.443C76.0846 129.925 74.0362 133.076 72.1373 136.896C70.0274 141.121 68.7087 145.02 68.1812 148.594C67.7944 151.322 67.856 154.095 68.3658 156.911C68.6999 158.847 69.2274 160.819 69.9483 162.826L71.0032 165.73C71.1263 166.346 71.1966 167.024 71.2142 167.764C71.2494 168.521 71.2054 168.952 71.0824 169.057L69.3417 170.457C68.0933 171.513 67.2406 172.349 66.7834 172.965L64.2515 176.16L63.6449 176.477C63.2054 176.724 62.9504 176.944 62.8801 177.137C62.634 177.736 62.6691 178.51 62.9856 179.461C63.3724 180.57 64.0406 181.38 64.99 181.89L67.179 183.052C67.2845 181.996 67.4779 181.547 67.7593 181.705C68.6911 182.269 69.5878 182.392 70.4494 182.075V184.029L74.1681 184.399L76.0406 184.478C76.7791 182.788 77.3857 182.145 77.8604 182.55C78.3176 182.955 78.9154 183.078 79.6538 182.92C80.3044 182.779 80.8055 182.498 81.1571 182.075L81.2363 184.452C83.7506 184.363 85.7901 184.099 87.355 183.659L88.0934 181.573C88.6209 181.292 89.078 180.843 89.4649 180.227C89.8517 179.593 90.1066 178.898 90.2297 178.141C89.8605 176.099 89.0165 174.048 87.6978 171.988C87.5923 171.795 87.5572 171.02 87.5923 169.665L86.5374 169.876L84.1374 169.982L82.8978 169.797L84.111 169.585L86.3264 169.216L87.6187 168.846V168.82C88.0231 168.732 88.6033 168.432 89.3594 167.922C90.889 166.883 92.533 165.281 94.2913 163.116C96.1023 160.881 97.2715 158.319 97.799 155.432C98.0803 153.901 98.177 151.885 98.0891 149.386C97.9836 146.446 97.0605 143.427 95.3198 140.329L92.7352 136.553L83.267 120.921Z" fill="#F29600"/>
<path d="M67.7592 181.705C67.4779 181.547 67.2845 181.996 67.179 183.052C68.0405 183.474 69.1307 183.8 70.4493 184.029V182.075C69.5878 182.392 68.6911 182.269 67.7592 181.705Z" fill="#D18200"/>
<path d="M77.8604 182.55C77.3856 182.145 76.779 182.788 76.0406 184.478C77.834 184.531 79.5659 184.522 81.2362 184.451L81.1571 182.075C80.8054 182.497 80.3043 182.779 79.6538 182.92C78.9153 183.078 78.3175 182.955 77.8604 182.55Z" fill="#D18200"/>
<path d="M90.2296 178.141C90.1065 178.898 89.8516 179.593 89.4648 180.227C89.0779 180.843 88.6208 181.292 88.0933 181.573L87.3549 183.659C89.3768 183.131 90.4142 182.348 90.467 181.309C90.5197 180.306 90.4406 179.25 90.2296 178.141Z" fill="#D18200"/>
<path d="M67.1526 181.336L67.2581 181.389C66.8361 180.332 66.2999 179.514 65.6493 178.933C64.946 178.317 64.4361 177.93 64.1196 177.771C63.768 177.577 63.4955 177.604 63.3021 177.85L62.1416 179.672L60.7965 182.154C60.2515 183.387 60.0317 184.54 60.1372 185.613C60.1899 186.159 60.2954 186.573 60.4537 186.854C60.5592 186.115 61.0867 185.323 62.0361 184.478C62.8097 183.791 63.4603 183.351 63.9878 183.158C64.6383 182.946 65.2449 182.709 65.8076 182.445C66.6515 182.022 67.0999 181.653 67.1526 181.336Z" fill="white"/>
<path d="M67.5218 182.973C67.7504 182.885 67.6625 182.357 67.2581 181.389L67.1526 181.336C67.0998 181.653 66.6515 182.022 65.8075 182.445C65.2449 182.709 64.6383 182.946 63.9877 183.158C63.4603 183.351 62.8097 183.791 62.0361 184.478C61.0866 185.323 60.5591 186.115 60.4536 186.854C61.4734 185.798 62.2207 185.147 62.6954 184.9L65.2273 183.871L67.5218 182.973Z" fill="#DBDCDC"/>
<path d="M73.1658 178.405L71.4515 180.781C70.4317 182.366 69.9218 183.624 69.9218 184.557C69.9218 186.229 70.1065 187.559 70.4757 188.544L71.0295 189.495L71.2669 189.152C71.2142 188.113 71.768 187.066 72.9285 186.009C73.7373 185.252 74.5285 184.716 75.3021 184.399C76.5153 183.871 77.201 183.202 77.3593 182.392C76.9373 181.195 76.4625 180.306 75.9351 179.725C75.3724 179.127 74.7834 178.704 74.168 178.458L73.1658 178.405Z" fill="white"/>
<path d="M75.302 184.399C74.5284 184.715 73.7372 185.252 72.9284 186.009C71.768 187.066 71.2141 188.113 71.2669 189.152L72.4009 187.805C72.7526 187.47 73.6757 186.845 75.1702 185.93C76.5944 185.05 77.4295 184.575 77.6757 184.504C77.7812 184.487 77.7988 184.267 77.7284 183.844C77.6757 183.422 77.5526 182.938 77.3592 182.392C77.201 183.202 76.5152 183.871 75.302 184.399Z" fill="#DBDCDC"/>
<path d="M86.7482 179.408C86.3614 178.933 85.957 178.554 85.535 178.273C85.0427 177.973 84.7087 177.929 84.5328 178.141L82.8449 180.174C81.8955 181.371 81.368 182.154 81.2625 182.524C80.9812 183.474 81.1922 184.848 81.8955 186.643C82.2471 187.541 82.6339 188.342 83.0559 189.046L83.2142 188.782V188.65C83.2669 187.77 83.5834 186.925 84.1636 186.115L85.6405 184.399L86.8801 183.131L87.9351 181.943C87.5131 180.693 87.1175 179.848 86.7482 179.408Z" fill="white"/>
<path d="M85.6406 184.399L84.1637 186.115C83.5834 186.925 83.267 187.77 83.2142 188.65V188.782C83.8823 187.778 84.3659 187.118 84.6648 186.801L88.1461 183.422C88.2868 183.316 88.2164 182.823 87.9351 181.943L86.8802 183.131L85.6406 184.399Z" fill="#DBDCDC"/>
<path d="M66.9416 181.045C67.3284 181.872 67.4955 182.453 67.4427 182.788L67.3372 182.946L66.7043 183.184L62.7482 184.768C62.3086 185.015 61.5965 185.64 60.6119 186.643C60.4537 186.397 60.3482 185.983 60.2954 185.402C60.1899 184.399 60.4009 183.325 60.9284 182.181L62.1943 179.804L63.3284 178.061C63.4163 177.938 63.5218 177.877 63.6449 177.877C63.9438 177.841 64.5856 178.246 65.5702 179.091C66.0625 179.531 66.5196 180.183 66.9416 181.045ZM67.0471 184.108L67.7065 183.844C68.0757 183.721 68.3043 183.43 68.3922 182.973C68.4801 182.427 68.2867 181.652 67.812 180.649C67.3372 179.646 66.801 178.88 66.2032 178.352L64.779 177.243C64.3218 176.979 63.9086 176.864 63.5394 176.9C63.1526 176.952 62.8185 177.146 62.5372 177.48L61.3768 179.302L60.0581 181.784C59.4427 183.122 59.2053 184.399 59.346 185.613C59.4163 186.229 59.557 186.731 59.768 187.118L60.0844 187.699L60.4537 187.937C60.6119 187.972 60.7438 187.919 60.8493 187.778L61.2976 187.329C62.2823 186.344 62.924 185.78 63.2229 185.64C63.6449 185.393 64.9196 184.883 67.0471 184.108Z" fill="#0D131A"/>
<path d="M77.5702 184.372L77.4647 184.504C77.201 184.592 76.401 185.05 75.0647 185.877C73.6581 186.722 72.7878 187.303 72.4537 187.62L71.1614 189.231C70.968 189.072 70.7922 188.764 70.6339 188.307C70.2823 187.374 70.1065 186.115 70.1065 184.531C70.1065 183.228 71.0999 181.327 73.0867 178.827L73.1922 178.669L73.4559 178.563C73.7197 178.546 74.0449 178.642 74.4318 178.854C74.9241 179.1 75.39 179.461 75.8296 179.936C76.3043 180.447 76.7351 181.239 77.1219 182.313C77.5087 183.334 77.6582 184.02 77.5702 184.372ZM77.7812 185.428C78.1329 185.323 78.3702 185.059 78.4933 184.636C78.6516 184.091 78.5109 183.21 78.0713 181.996C77.6142 180.799 77.1043 179.892 76.5417 179.276C76.0494 178.73 75.5131 178.308 74.9329 178.009C74.3702 177.709 73.8603 177.569 73.4032 177.586C72.9812 177.621 72.6471 177.789 72.401 178.088L72.3219 178.22C70.1944 180.896 69.1306 182.999 69.1306 184.531C69.1306 186.256 69.3328 187.646 69.7372 188.703C69.9658 189.301 70.2295 189.732 70.5284 189.997L70.9504 190.34L71.346 190.472L71.6889 190.234L71.979 189.759C72.3307 189.196 72.7087 188.72 73.1131 188.333C73.3944 188.069 74.1944 187.532 75.5131 186.722C76.7966 185.93 77.5527 185.499 77.7812 185.428Z" fill="#0D131A"/>
<path d="M84.2956 178.695L84.533 178.405C84.6209 178.317 84.7176 178.273 84.8231 178.273C85.0692 178.273 85.3681 178.413 85.7198 178.695C86.0714 178.959 86.3791 179.267 86.6429 179.619C86.9242 179.954 87.2494 180.605 87.6187 181.573C88.0055 182.594 88.1286 183.219 87.9879 183.448L86.4319 184.9L84.6648 186.643C84.2956 187.048 83.7857 187.761 83.1351 188.782C82.5725 187.831 82.1154 186.837 81.7637 185.798C81.3066 184.407 81.1923 183.334 81.4208 182.577C81.5615 182.084 82.5198 180.79 84.2956 178.695ZM87.4077 179.012C87.1791 178.695 86.8626 178.369 86.4582 178.035C85.8604 177.542 85.3154 177.296 84.8231 177.296C84.4187 177.296 84.0758 177.454 83.7945 177.771L83.5571 178.061C81.6934 180.244 80.6736 181.652 80.4978 182.286C80.1813 183.342 80.3483 184.768 80.9989 186.564C81.3681 187.532 81.7989 188.439 82.2912 189.284L82.6868 189.97L83.1088 190.234L83.5044 189.996L83.9527 189.31L85.3769 187.303L88.6209 184.161C89.1308 183.721 89.1044 182.761 88.5418 181.283C88.1198 180.209 87.7418 179.452 87.4077 179.012Z" fill="#0D131A"/>
<path d="M84.5066 171.143L85.9835 170.826C86.4934 170.65 86.7307 170.518 86.6956 170.43L86.0362 170.51L84.6912 170.694L82.5285 170.642C81.5791 170.589 81.1043 170.589 81.1043 170.642L82.4494 170.959L84.5066 171.143Z" fill="#0D131A"/>
<path d="M108.823 5.02958C107.557 4.94156 106.502 5.83933 105.658 7.72288C105.43 8.21578 105.157 9.29838 104.841 10.9707L104.181 14.6674C104.058 15.3891 103.452 18.0648 102.362 22.6945C101.975 24.3844 100.735 26.8841 98.6429 30.1935L97.1396 32.834L96.6912 34.2863C96.6209 34.8496 96.911 36.1434 97.5616 38.1678C97.2275 39.2768 97.1044 40.8611 97.1924 42.9207L95.4781 47.8056L94.555 50.1821L93.4737 52.3209C93.333 52.5497 93.078 52.6729 92.7088 52.6905C92.3923 52.7257 92.0846 53.025 91.7857 53.5883C91.2055 54.6973 91.7945 56.7657 93.5528 59.7935L96.3484 64.0183C96.1198 65.5146 96.8231 66.5003 98.4583 66.9756L102.177 67.4245C102.581 67.4773 103.17 67.715 103.944 68.1375C104.647 68.5071 105.456 68.692 106.37 68.692C107.461 68.692 108.726 68.2871 110.168 67.4773C111.417 66.8084 112.181 66.2451 112.463 65.7874L114.124 63.7278L116.419 60.9553L119.505 57.5755L122.327 54.6181C122.696 54.1956 123.144 53.9052 123.672 53.7467L124.331 53.6411C125.527 52.5849 126.546 51.2119 127.39 49.5219C128.058 48.1665 128.393 47.2071 128.393 46.6438C128.393 46.2389 128.296 45.4204 128.102 44.1881C127.891 42.8679 127.672 41.8029 127.443 40.9931C126.916 39.1272 126.652 37.5781 126.652 36.3459C126.652 35.2721 127.118 33.4061 128.05 30.748C128.454 29.551 129.746 27.1569 131.927 23.5659L134.221 20.7405L136.911 17.5983C137.474 16.9118 137.729 16.0493 137.676 15.0107C137.623 14.1129 137.412 13.532 137.043 13.2679C136.674 13.0039 136.05 12.8631 135.171 12.8454C134.344 12.8454 133.694 12.9423 133.219 13.1359C132.815 13.2943 132.015 13.9545 130.819 15.1163L127.311 18.6281C124.41 21.5327 121.913 23.7067 119.821 25.1502C118.942 25.7663 117.702 25.8983 116.102 25.5462C114.819 25.2822 113.544 24.7805 112.278 24.0412C111.381 23.5131 110.81 22.5097 110.564 21.031C110.458 20.3621 110.406 19.0946 110.406 17.2287L110.696 12.2645C110.872 9.88809 110.951 8.49743 110.933 8.09255C110.898 7.31801 110.74 6.67549 110.458 6.16499C110.107 5.46086 109.562 5.08239 108.823 5.02958Z" fill="#F29600"/>
<path d="M102.995 57.47L101.755 57.9453L100.7 58.0773L99.777 58.0509L99.2759 57.9189L98.9857 57.9717C98.933 58.1125 99.0737 58.2445 99.4077 58.3677L100.674 58.579C101.482 58.579 102.309 58.3677 103.153 57.9453C103.364 57.8396 103.724 57.7604 104.234 57.7076L105.236 57.6812C105.447 57.7164 106.036 58.2181 107.003 59.1863C107.355 59.5384 107.619 59.5912 107.795 59.3447C107.918 59.1863 107.751 58.9222 107.293 58.5526L106.186 57.734C105.57 57.3291 105.043 57.1267 104.603 57.1267C104.146 57.1267 103.61 57.2411 102.995 57.47Z" fill="#0D131A"/>
<path d="M102.942 61.6947L104.102 61.3779L105.025 61.6419C105.412 61.6947 105.676 61.6243 105.816 61.4307C105.887 61.325 105.755 61.149 105.421 60.9026C105.087 60.6737 104.814 60.5505 104.603 60.5329C104.41 60.5153 104.076 60.6209 103.601 60.8498L102.731 61.3514C102.608 61.4571 102.573 61.5539 102.625 61.6419L102.942 61.6947Z" fill="#0D131A"/>
<path d="M93.5527 56.942C93.4648 57.0476 93.5176 57.2236 93.711 57.4701L94.1857 57.9982L95.0824 59.3712C95.2231 59.6177 95.3813 59.7233 95.5572 59.6881C95.7506 59.6353 95.7945 59.512 95.689 59.3184C95.5659 59.072 95.2495 58.5967 94.7396 57.8925C94.6165 57.6813 94.3967 57.4613 94.0802 57.2324C93.7637 56.986 93.5879 56.8891 93.5527 56.942Z" fill="#0D131A"/>
<path d="M107.557 40.9668L107.636 40.6764C107.636 40.5531 107.592 40.4739 107.504 40.4387L107.056 40.65L106.713 41.6005L106.37 42.0758L106.186 42.4983L106.397 43C106.555 43.1408 106.687 43.1936 106.792 43.1584C106.915 43.1056 106.977 42.78 106.977 42.1815L107.214 41.5741L107.557 40.9668Z" fill="#0D131A"/>
<path d="M106.792 43.4488C106.634 43.5193 106.687 44.065 106.951 45.086L108.164 48.545L108.85 49.4692C109.236 49.8565 109.483 50.0149 109.588 49.9445C109.764 49.8212 109.667 49.478 109.298 48.9147L108.955 48.4658L108.612 47.9377L107.953 46.3534L107.32 44.6899C107.056 43.7921 106.88 43.3784 106.792 43.4488Z" fill="#0D131A"/>
<path d="M100.647 40.8877L100.515 41.3102L100.489 42.0495L100.647 43.317C100.647 44.1619 100.788 44.558 101.069 44.5052C101.245 44.47 101.333 44.3379 101.333 44.1091L101.28 43.5282L100.99 42.34C100.867 41.3894 100.753 40.9053 100.647 40.8877Z" fill="#0D131A"/>
<path d="M112.7 60.9554L112.621 62.3813C112.639 62.6806 112.507 62.883 112.225 62.9886C111.944 63.0942 111.68 62.9798 111.434 62.6453L111.118 63.1206C111.522 63.6311 111.962 63.8864 112.436 63.8864C112.753 63.8864 112.99 63.5079 113.149 62.751C113.307 62.0116 113.36 61.1051 113.307 60.0312L112.7 60.9554Z" fill="#0D131A"/>
<path d="M112.331 63.0941C112.647 62.9533 112.77 62.2404 112.7 60.9553L111.434 62.6452L111.962 63.0677L112.331 63.0941Z" fill="white"/>
<path d="M97.5879 39.6731L97.4824 40.3596C97.3769 41.187 97.3681 42.0671 97.456 43.0001C97.4736 43.3698 97.6582 43.8715 98.0099 44.5052C98.4494 45.2797 98.9681 45.8078 99.5659 46.0895C99.5308 45.0333 99.3549 44.0123 99.0384 43.0265C98.6692 41.8999 98.1857 40.7821 97.5879 39.6731Z" fill="white"/>
<path d="M56.7614 42.1814C56.6383 42.1286 56.4537 42.2078 56.2075 42.419L55.7328 42.9207C53.8515 45.4204 52.058 49.5484 50.3525 55.3046C48.5767 61.2546 47.3459 67.4597 46.6602 73.9201C46.5899 74.4834 46.5987 74.9851 46.6866 75.4252C46.7569 75.8301 46.8712 76.0413 47.0294 76.0589C47.3459 76.0941 47.5657 75.4076 47.6888 73.9994C48.269 68.1551 49.4295 62.2579 51.1701 56.308C52.7877 50.763 54.5284 46.4238 56.3921 43.2904C56.7965 42.6215 56.9196 42.2518 56.7614 42.1814Z" fill="#0D131A"/>
<path d="M49.2185 46.9345C49.0954 46.8817 48.8317 47.1281 48.4273 47.6738L47.7679 48.6772C43.6536 60.0489 42.1064 70.8838 43.1261 81.1817L43.2316 82.502C43.3195 83.2413 43.425 83.611 43.5481 83.611C43.6536 83.611 43.7679 83.2853 43.891 82.634L44.0492 81.4194C43.6272 67.9704 45.2273 57.0828 48.8492 48.7564C49.3416 47.6474 49.4646 47.0401 49.2185 46.9345Z" fill="#0D131A"/>
<path d="M159.566 48.862L159.223 48.3339C159.065 48.105 158.933 48.0082 158.828 48.0434C158.705 48.0786 158.643 48.2547 158.643 48.5715L158.749 49.258C159.768 52.0746 160.542 55.9297 161.07 60.8234C161.65 66.0516 161.764 70.8837 161.412 75.3198V76.2967C161.448 76.7896 161.527 77.0361 161.65 77.0361C161.773 77.0361 161.896 76.7896 162.019 76.2967L162.177 75.3462C162.722 70.7693 162.705 65.6643 162.124 60.0313C161.562 54.4686 160.709 50.7455 159.566 48.862Z" fill="#0D131A"/>
<path d="M163.206 55.0143C163.048 54.4862 162.881 54.2486 162.705 54.3014C162.582 54.319 162.503 54.4598 162.467 54.7239V55.3048C163.681 60.0401 164.595 64.8898 165.21 69.8539C165.861 75.1349 166.107 80.099 165.949 84.7463C165.949 85.7673 166.037 86.2866 166.212 86.3042C166.336 86.3042 166.423 86.0842 166.476 85.6441L166.529 84.7463C167.144 80.1871 167.1 75.1877 166.397 69.7483C165.799 64.9954 164.736 60.0841 163.206 55.0143Z" fill="#0D131A"/>
<path d="M119.241 40.6236C119.012 40.518 118.757 40.5532 118.476 40.7292L113.069 44.7428L112.7 45.0597C112.384 45.2533 112.155 45.5437 112.014 45.931L111.645 46.6968L111.091 47.9906L111.197 48.3603L112.357 48.4131L115.654 47.7794L115.944 47.7002L118.74 46.9608C119.461 46.6968 119.865 46.3887 119.953 46.0366C120.041 45.6318 120.05 44.8836 119.979 43.7922L119.715 41.363C119.645 40.9757 119.487 40.7292 119.241 40.6236Z" fill="white"/>
<path d="M119.241 40.6236C119.012 40.518 118.757 40.5532 118.476 40.7292L113.069 44.7428L112.7 45.0597C112.384 45.2533 112.155 45.5437 112.014 45.931L111.645 46.6968L111.091 47.9906L111.197 48.3603L112.357 48.4131L115.654 47.7794L115.944 47.7002L118.74 46.9608C119.461 46.6968 119.865 46.3887 119.953 46.0366C120.041 45.6318 120.05 44.8836 119.979 43.7922L119.715 41.363C119.645 40.9757 119.487 40.7292 119.241 40.6236Z" fill="white"/>
<path d="M116.392 42.208L116.34 42.2608L112.7 45.0597C112.384 45.2534 112.155 45.5438 112.014 45.9311L111.645 46.6969L111.091 47.9907L111.197 48.3604L112.357 48.4132L115.417 47.8323C116.173 46.6352 116.551 45.2886 116.551 43.7923C116.551 43.2466 116.498 42.7185 116.392 42.208Z" fill="#008086"/>
<path d="M99.1967 46.195L99.8561 46.5382L99.8297 46.063C99.8121 44.9716 99.6363 43.933 99.3022 42.9472L98.5374 40.9668C98.2912 41.6181 98.1682 42.2958 98.1682 43C98.1682 44.2146 98.511 45.2796 99.1967 46.195Z" fill="#008086"/>
<path d="M99.2495 45.1917C99.4078 45.1917 99.566 45.0861 99.7242 44.8749L99.3023 42.9473C99.1089 42.3312 98.8627 41.6975 98.5638 41.0461C98.3176 41.539 98.1946 42.1375 98.1946 42.8417C98.1946 43.493 98.3001 44.0475 98.5111 44.5052C98.7045 44.9629 98.9506 45.1917 99.2495 45.1917Z" fill="#00666C"/>
<path d="M98.88 44.6111C99.0031 45.1042 99.2581 45.3155 99.645 45.245C99.6098 44.8753 99.4691 44.3206 99.2229 43.5811C98.8888 43.8628 98.7744 44.2062 98.88 44.6111Z" fill="#0D131A"/>
<path d="M116.392 42.208L116.34 42.2608L112.7 45.0597C112.384 45.2534 112.155 45.5438 112.014 45.9311L111.434 47.1457L113.808 47.3042C114.757 47.1281 115.548 46.7321 116.181 46.1159C116.428 45.3766 116.551 44.6021 116.551 43.7923C116.551 43.2466 116.498 42.7185 116.392 42.208Z" fill="#00666C"/>
<path d="M115.206 47.6472L115.839 47.6208C116.507 46.4766 116.841 45.2004 116.841 43.7921C116.841 43.2992 116.779 42.7095 116.656 42.023L116.63 41.9966C116.612 42.243 116.454 42.3663 116.155 42.3663L116.287 43.7921C116.287 45.1828 115.927 46.4678 115.206 47.6472Z" fill="#0D131A"/>
<path d="M113.729 47.1456C114.028 47.1456 114.274 47.0399 114.467 46.8287C114.643 46.6175 114.731 46.371 114.731 46.0894C114.731 45.8077 114.643 45.5613 114.467 45.35C114.274 45.1564 114.054 45.0596 113.808 45.0596C113.579 45.0596 113.377 45.1652 113.201 45.3764C113.025 45.5877 112.937 45.8341 112.937 46.1158L113.122 46.8023L113.729 47.1456Z" fill="#0D131A"/>
<path d="M114.757 45.7466C115.021 45.7466 115.232 45.6497 115.39 45.456C115.531 45.28 115.601 45.0775 115.601 44.8486C115.601 44.5844 115.522 44.3643 115.364 44.1882C115.188 43.9945 114.986 43.8977 114.757 43.8977C114.546 43.8977 114.352 44.0034 114.177 44.2147C114.018 44.4083 113.939 44.6372 113.939 44.9014L114.177 45.4825C114.352 45.6585 114.546 45.7466 114.757 45.7466Z" fill="white"/>
<path d="M99.0384 44.0038L99.3549 43.7661L99.4604 43.2907C99.4604 43.0618 99.4165 42.8769 99.3285 42.736C99.2582 42.5775 99.1615 42.4983 99.0384 42.4983L98.7482 42.7624L98.6426 43.3171L98.7482 43.7925L99.0384 44.0038Z" fill="white"/>
<path d="M118.634 40.9668C119.074 40.7027 119.346 40.8524 119.452 41.4157L119.715 43.8185C119.786 44.8747 119.777 45.5876 119.689 45.9573C119.601 46.3094 118.977 46.6438 117.817 46.9607L115.575 47.4888L112.304 48.1489L111.54 48.2281C111.399 48.2105 111.337 48.1401 111.355 48.0169L112.252 46.0365C112.357 45.7725 112.559 45.5172 112.858 45.2708C114.054 44.3026 114.933 43.6073 115.496 43.1848L118.634 40.9668ZM119.188 40.0426C118.01 40.7115 116.779 41.5213 115.496 42.4719L112.858 44.6635L112.225 45.218C111.944 45.4644 111.768 45.6845 111.698 45.8781L110.326 48.7562L110.142 49.2315C110.107 49.4076 110.168 49.522 110.326 49.5748L110.537 49.4164L110.669 49.0731C110.704 48.9851 110.836 48.8971 111.065 48.809L111.724 48.677C112.269 48.677 113.351 48.501 114.968 48.1489L119.082 47.1455C119.469 46.9871 119.786 46.7055 120.032 46.3006C120.313 45.8605 120.454 45.3412 120.454 44.7427C120.454 44.2498 120.401 43.5545 120.296 42.6567L120.164 41.2572L120.111 40.7027L120.164 40.2274C120.656 39.6993 120.876 39.3913 120.823 39.3033C120.753 39.2152 120.208 39.4617 119.188 40.0426Z" fill="#0D131A"/>
<path d="M98.0626 42.9209C98.0626 44.5228 98.5637 45.8079 99.5659 46.7761L99.9615 46.644C99.5044 46.2392 99.144 45.7199 98.8802 45.0861C98.5989 44.4348 98.4582 43.7395 98.4582 43.0002C98.4582 42.3488 98.5637 41.7415 98.7747 41.1782L98.4846 40.6765C98.2033 41.4159 98.0626 42.164 98.0626 42.9209Z" fill="#0D131A"/>
<path d="M97.4824 40.3595L97.5879 39.673C98.1857 40.782 98.6692 41.8998 99.0385 43.0264C99.3549 44.0122 99.5308 45.0332 99.5659 46.0894C98.9681 45.8078 98.4494 45.2797 98.0099 44.5051C97.6582 43.8714 97.4736 43.3697 97.456 43C97.3681 42.0671 97.3769 41.1869 97.4824 40.3595ZM105.685 8.62077C106.353 6.47317 107.311 5.39936 108.559 5.39936C109.386 5.39936 109.975 5.87465 110.326 6.82523C110.59 7.56457 110.678 8.40073 110.59 9.33371L110.247 13.6113L110.036 18.9187C110.071 20.7495 110.326 22.0961 110.801 22.9587C111.153 23.5748 111.803 24.1733 112.753 24.7542C113.509 25.2119 114.414 25.5376 115.469 25.7312L117.896 25.8896L116.867 26.3385L115.628 26.9986L114.652 27.7644L113.386 28.847C112.981 29.3047 112.779 29.5951 112.779 29.7183C112.797 29.8592 113.087 29.7271 113.65 29.3223L114.731 28.6093L115.575 27.9756C116.032 27.5179 116.507 27.2275 116.999 27.1043C117.333 27.0514 117.773 26.8754 118.318 26.5762C118.968 26.2417 119.557 25.8368 120.085 25.3615C122.406 23.4428 124.489 21.6032 126.335 19.8429L132.454 13.9546C132.946 13.4969 133.685 13.224 134.669 13.136C135.654 13.0304 136.366 13.1712 136.806 13.5585C137.21 13.9106 137.386 14.5003 137.333 15.3276C137.28 16.067 137.105 16.6391 136.806 17.044L134.327 19.9749L131.557 23.4868C128.058 29.0846 126.309 33.283 126.309 36.0819C126.309 37.367 126.423 38.5728 126.652 39.6994L127.258 41.9702L127.786 44.2675C127.962 45.2181 128.05 45.9046 128.05 46.3271C128.05 46.8376 127.927 47.4449 127.68 48.149C127.417 48.9588 127.039 49.7157 126.546 50.4198C125.421 52.0746 124.718 53.0251 124.436 53.2716L123.935 53.3508C123.636 53.3508 123.408 53.4036 123.25 53.5092L121.377 54.9879C120.234 56.0089 119.267 57.0035 118.476 57.9717L114.863 62.1172C113.579 63.6135 112.797 64.6257 112.515 65.1538C112.252 65.5939 111.54 66.1924 110.379 66.9493C108.92 67.8999 107.61 68.3752 106.449 68.3752C105.852 68.3752 105.28 68.2608 104.735 68.032L103.733 67.5303C102.871 67.143 101.984 66.9405 101.069 66.9229C99.2582 66.8349 98.1066 66.6149 97.6143 66.2628C97.2978 66.034 97.034 65.6027 96.8231 64.969C97.4736 65.6027 98.0978 65.9724 98.6956 66.078C99.5044 66.254 100.551 66.034 101.834 65.4179L103.153 64.969L104.709 64.7577L106.555 65.1274C107.469 65.3034 108.225 65.2946 108.823 65.101C109.474 64.8898 109.984 64.5905 110.353 64.2032L111.25 62.9094C111.935 61.8532 112.893 60.6474 114.124 59.2919C116.357 56.8803 117.817 55.4016 118.502 54.8559C118.784 54.627 119.364 54.363 120.243 54.0637L121.878 53.43C122.159 53.254 122.37 52.9371 122.511 52.4794C122.599 52.1802 122.696 51.6697 122.801 50.9479C122.872 50.4374 122.863 49.9798 122.775 49.5749C122.705 49.2404 122.617 49.0732 122.511 49.0732C122.353 49.1084 122.265 49.3548 122.247 49.8125C122.054 51.3968 121.861 52.3562 121.667 52.6907C121.544 52.9019 121.105 53.1219 120.348 53.3508C119.452 53.6324 118.828 53.9053 118.476 54.1693L115.707 56.5194C114.37 57.7692 113.368 58.8078 112.7 59.6352C111.751 60.8322 110.863 62.1084 110.036 63.4639L109.06 64.124C108.551 64.3353 107.979 64.4409 107.346 64.4409L106.001 64.256L104.603 64.0712L103.047 64.256L101.544 64.6521C100.208 65.233 99.4165 65.5235 99.1703 65.5235C98.6604 65.5235 97.9923 65.0922 97.1659 64.2296C96.1637 63.191 95.1527 61.7476 94.1329 59.8992C93.5527 58.843 93.0692 57.8132 92.6824 56.8098C92.2428 55.6832 92.023 54.8383 92.023 54.275C92.023 53.8173 92.2077 53.474 92.5769 53.2452L93.7637 52.3738C94.1505 51.9161 94.5989 51.08 95.1088 49.8653C95.5659 48.8091 95.9 47.885 96.111 47.0928C96.4099 46.0014 96.7791 44.8572 97.2187 43.6602C97.5703 44.6988 97.9747 45.4909 98.4319 46.0366L99.1967 46.7231C99.4956 46.9344 99.6451 47.1544 99.6451 47.3833L99.7769 47.6473L100.014 47.5945C100.173 47.2776 100.252 46.8904 100.252 46.4327L100.014 44.7164C99.8385 43.7482 99.6714 43.0881 99.5132 42.736L97.6934 38.0359C97.2363 36.6628 97.0077 35.4834 97.0077 34.4976C97.0077 33.8287 97.1395 33.2126 97.4033 32.6493C97.6143 32.2268 97.9659 31.7075 98.4582 31.0914C98.933 30.5105 99.4868 29.6655 100.12 28.5565C100.841 27.3067 101.43 26.1097 101.887 24.9655C102.871 22.4482 103.715 19.1123 104.419 14.958C105.052 11.4021 105.474 9.2897 105.685 8.62077ZM105.052 7.37974L103.627 14.0602L102.203 20.5822C101.693 22.4306 100.885 24.4285 99.7769 26.5762L97.8516 30.1144C97.0604 31.5755 96.6033 32.6053 96.4802 33.2038C96.3395 33.8727 96.2868 34.4624 96.322 34.9729L96.6384 36.3724L97.1395 38.1679L96.9549 39.4354C96.8318 40.5092 96.8055 41.627 96.8758 42.7888L94.8714 48.4659L93.9219 50.6575C93.5351 51.3792 93.2186 51.8457 92.9725 52.0569L91.8912 52.8227C91.3989 53.21 91.1527 53.6677 91.1527 54.1958C91.1527 55.2696 91.6274 56.801 92.5769 58.7902C93.5088 60.7794 94.5725 62.4781 95.7681 63.8864C95.8384 64.8017 96.2428 65.7083 96.9813 66.6061C97.3681 67.0462 98.1242 67.363 99.2494 67.5567L102.177 67.8999C102.687 67.9703 103.417 68.2344 104.366 68.6921C105.175 69.097 105.931 69.2994 106.634 69.2994C107.513 69.2994 108.577 69.0001 109.825 68.4016C110.863 67.8911 111.636 67.3982 112.146 66.9229L113.887 64.9162L116.472 61.7212L122.089 55.4632C122.581 54.9527 123.135 54.6358 123.751 54.5126L124.674 54.3278L126.098 52.6907L127.522 50.8423L128.63 48.8091C129.069 47.9114 129.289 47.26 129.289 46.8552C129.289 46.2919 128.964 44.69 128.313 42.0495C127.733 39.5674 127.443 37.5694 127.443 36.0555C127.443 35.0345 127.865 33.4326 128.709 31.2498C129.447 29.3135 130.265 27.5531 131.162 25.9688C131.83 24.7894 133.034 23.2403 134.775 21.3216L137.861 17.9417C138.546 17.0792 138.845 16.067 138.757 14.9052C138.687 13.849 138.344 13.0744 137.729 12.5815C137.166 12.1062 136.313 11.851 135.171 11.8158C133.834 11.763 132.744 12.1414 131.9 12.9512L127.153 17.6777L122.722 22.0873C120.964 23.654 119.724 24.5958 119.003 24.9126C118.546 25.1239 117.781 25.2119 116.709 25.1767C115.601 25.1239 114.731 24.9566 114.098 24.675C113.184 24.2877 112.507 23.8652 112.067 23.4076C111.381 22.6682 111.039 21.6824 111.039 20.4502L111.012 16.8591L111.118 13.7169L111.54 8.11908C111.575 7.30932 111.346 6.49957 110.854 5.68982C110.309 4.79205 109.614 4.28155 108.77 4.15833C107.926 4.05271 107.135 4.34317 106.397 5.0297C105.711 5.68102 105.263 6.46437 105.052 7.37974Z" fill="#0D131A"/>
</g>
<defs>
<filter id="filter0_d_70_2504" x="0" y="0" width="199" height="195" filterUnits="userSpaceOnUse" color-interpolation-filters="sRGB">
<feFlood flood-opacity="0" result="BackgroundImageFix"/>
<feColorMatrix in="SourceAlpha" type="matrix" values="0 0 0 0 0 0 0 0 0 0 0 0 0 0 0 0 0 0 127 0" result="hardAlpha"/>
<feOffset/>
<feGaussianBlur stdDeviation="2"/>
<feComposite in2="hardAlpha" operator="out"/>
<feColorMatrix type="matrix" values="0 0 0 0 0 0 0 0 0 0 0 0 0 0 0 0 0 0 0.25 0"/>
<feBlend mode="normal" in2="BackgroundImageFix" result="effect1_dropShadow_70_2504"/>
<feBlend mode="normal" in="SourceGraphic" in2="effect1_dropShadow_70_2504" result="shape"/>
</filter>
<filter id="filter1_d_70_2504" x="118.195" y="23.9651" width="98.84" height="112.81" filterUnits="userSpaceOnUse" color-interpolation-filters="sRGB">
<feFlood flood-opacity="0" result="BackgroundImageFix"/>
<feColorMatrix in="SourceAlpha" type="matrix" values="0 0 0 0 0 0 0 0 0 0 0 0 0 0 0 0 0 0 127 0" result="hardAlpha"/>
<feOffset dx="10" dy="14"/>
<feGaussianBlur stdDeviation="7"/>
<feComposite in2="hardAlpha" operator="out"/>
<feColorMatrix type="matrix" values="0 0 0 0 0 0 0 0 0 0 0 0 0 0 0 0 0 0 0.26 0"/>
<feBlend mode="normal" in2="BackgroundImageFix" result="effect1_dropShadow_70_2504"/>
<feBlend mode="normal" in="SourceGraphic" in2="effect1_dropShadow_70_2504" result="shape"/>
</filter>
<clipPath id="clip0_70_2504">
<rect width="191" height="187" fill="white" transform="matrix(-1 0 0 1 195 4)"/>
</clipPath>
</defs>
</svg>
